<svg xmlns="http://www.w3.org/2000/svg" xmlns:xlink="http://www.w3.org/1999/xlink" width="1400" zoomAndPan="magnify" viewBox="0 0 1050 404.99999" height="540" preserveAspectRatio="xMidYMid meet" version="1.0"><defs><clipPath id="e8a5425802"><path d="M 0 0 L 1050 0 L 1050 394.308594 L 0 394.308594 Z M 0 0 " clip-rule="nonzero"/></clipPath></defs><g clip-path="url(#e8a5425802)"><path fill="#000000" d="M 1053.902344 36.71875 L 1053.902344 -5.246094 C 1053.902344 -5.246094 -11.648438 -5.246094 -11.648438 -5.246094 C -11.648438 9.460938 -15.597656 31.335938 -9.671875 44.070312 C 5.40625 35.820312 22.097656 27.75 35.921875 43.351562 C 65.539062 76.886719 72.539062 152.738281 61.410156 193.984375 C 57.460938 208.507812 50.820312 222.675781 51.71875 237.738281 C 52.617188 252.800781 64.640625 268.761719 79.363281 266.25 C 88.875 264.636719 95.875 255.671875 98.390625 246.167969 C 109.160156 205.28125 30.355469 36.71875 120.828125 36.71875 C 174.320312 36.71875 159.601562 99.121094 159.601562 121.179688 C 159.601562 153.996094 144.703125 212.273438 171.628906 212.273438 C 198.195312 212.273438 183.65625 151.125 183.65625 121.179688 C 183.65625 92.664062 194.964844 126.199219 228.710938 94.996094 C 243.25 81.546875 245.945312 109.164062 266.765625 109.164062 C 290.640625 109.164062 344.132812 76.527344 370.164062 76.527344 C 417.730469 76.527344 414.679688 160.449219 414.679688 205.101562 C 414.679688 269.65625 375.90625 338.339844 422.398438 338.339844 C 468.710938 338.339844 434.964844 269.65625 434.964844 205.101562 C 434.964844 187.347656 445.375 179.101562 463.148438 179.101562 C 498.867188 179.101562 494.382812 288.128906 494.382812 324.710938 C 494.382812 340.492188 473.378906 386.398438 503.894531 386.398438 C 542.308594 386.398438 515.382812 337.261719 515.382812 324.710938 C 515.382812 277.367188 513.945312 56.441406 579.289062 117.59375 C 597.058594 134.269531 609.085938 178.5625 609.085938 190.21875 C 609.085938 221.777344 579.289062 357.886719 620.933594 357.886719 C 668.503906 357.886719 631.164062 221.777344 631.164062 190.21875 C 631.164062 164.574219 628.292969 105.039062 678.195312 105.039062 C 711.761719 105.039062 704.941406 131.578125 704.941406 152.378906 C 704.941406 171.210938 694.890625 199.363281 714.996094 199.363281 C 735.097656 199.363281 722.175781 171.390625 722.175781 152.378906 C 722.175781 120.460938 705.300781 14.300781 744.433594 14.300781 C 814.261719 14.300781 772.617188 280.777344 772.617188 296.378906 C 772.617188 313.054688 760.769531 394.109375 790.386719 394.109375 C 826.109375 394.109375 811.210938 310.363281 811.210938 296.378906 C 811.210938 283.285156 790.386719 72.941406 823.058594 72.941406 C 861.652344 72.941406 852.855469 117.59375 852.855469 123.152344 C 852.855469 139.828125 842.445312 190.21875 861.832031 190.21875 C 885.707031 190.21875 867.753906 153.816406 867.753906 114.722656 C 867.753906 98.941406 867.753906 36.539062 939.199219 36.539062 C 980.84375 36.539062 995.742188 44.964844 995.742188 58.234375 C 995.742188 84.058594 980.84375 274.140625 1004.71875 274.140625 C 1037.386719 274.140625 1018.898438 81.367188 1018.898438 58.234375 C 1018.71875 45.503906 1030.925781 37.074219 1053.902344 36.71875 Z M 1053.902344 36.71875 " fill-opacity="1" fill-rule="nonzero"/></g></svg>