<svg xmlns="http://www.w3.org/2000/svg" xmlns:xlink="http://www.w3.org/1999/xlink" width="1366" zoomAndPan="magnify" viewBox="0 0 1024.5 703.499984" height="938" preserveAspectRatio="xMidYMid meet" version="1.0"><defs><clipPath id="a09131456d"><path d="M 0.113281 0 L 397.828125 0 L 397.828125 152.890625 L 0.113281 152.890625 Z M 0.113281 0 " clip-rule="nonzero"/></clipPath><clipPath id="1fd6f148f4"><path d="M 326 0 L 734.609375 0 L 734.609375 152.890625 L 326 152.890625 Z M 326 0 " clip-rule="nonzero"/></clipPath><clipPath id="c35510152c"><path d="M 661 0 L 1023.886719 0 L 1023.886719 152.890625 L 661 152.890625 Z M 661 0 " clip-rule="nonzero"/></clipPath></defs><g clip-path="url(#a09131456d)"><path fill="#000000" d="M 397.828125 16.125 L 397.828125 0.078125 C 397.828125 0.078125 -9.867188 0.078125 -9.867188 0.078125 C -9.867188 5.699219 -11.378906 14.066406 -9.113281 18.9375 C -3.34375 15.78125 3.042969 12.695312 8.332031 18.664062 C 19.664062 31.488281 22.34375 60.5 18.085938 76.273438 C 16.574219 81.828125 14.03125 87.246094 14.375 93.007812 C 14.71875 98.769531 19.320312 104.875 24.953125 103.914062 C 28.59375 103.296875 31.273438 99.867188 32.234375 96.230469 C 36.355469 80.59375 6.203125 16.125 40.820312 16.125 C 61.285156 16.125 55.65625 39.992188 55.65625 48.429688 C 55.65625 60.980469 49.953125 83.269531 60.257812 83.269531 C 70.421875 83.269531 64.859375 59.882812 64.859375 48.429688 C 64.859375 37.523438 69.183594 50.347656 82.097656 38.414062 C 87.660156 33.273438 88.691406 43.832031 96.65625 43.832031 C 105.792969 43.832031 126.261719 31.351562 136.21875 31.351562 C 154.417969 31.351562 153.253906 63.449219 153.253906 80.527344 C 153.253906 105.214844 138.417969 131.484375 156.207031 131.484375 C 173.925781 131.484375 161.011719 105.214844 161.011719 80.527344 C 161.011719 73.738281 164.996094 70.582031 171.796875 70.582031 C 185.464844 70.582031 183.746094 112.28125 183.746094 126.273438 C 183.746094 132.308594 175.710938 149.863281 187.386719 149.863281 C 202.085938 149.863281 191.78125 131.074219 191.78125 126.273438 C 191.78125 108.164062 191.234375 23.671875 216.234375 47.058594 C 223.035156 53.4375 227.636719 70.375 227.636719 74.832031 C 227.636719 86.90625 216.234375 138.960938 232.167969 138.960938 C 250.367188 138.960938 236.082031 86.90625 236.082031 74.832031 C 236.082031 65.027344 234.984375 42.257812 254.078125 42.257812 C 266.921875 42.257812 264.3125 52.40625 264.3125 60.363281 C 264.3125 67.5625 260.464844 78.332031 268.15625 78.332031 C 275.851562 78.332031 270.90625 67.632812 270.90625 60.363281 C 270.90625 48.15625 264.449219 7.550781 279.421875 7.550781 C 306.140625 7.550781 290.203125 109.46875 290.203125 115.4375 C 290.203125 121.8125 285.671875 152.8125 297.003906 152.8125 C 310.671875 152.8125 304.972656 120.785156 304.972656 115.4375 C 304.972656 110.429688 297.003906 29.980469 309.503906 29.980469 C 324.269531 29.980469 320.90625 47.058594 320.90625 49.183594 C 320.90625 55.5625 316.921875 74.832031 324.339844 74.832031 C 333.472656 74.832031 326.605469 60.910156 326.605469 45.960938 C 326.605469 39.925781 326.605469 16.058594 353.941406 16.058594 C 369.875 16.058594 375.578125 19.28125 375.578125 24.355469 C 375.578125 34.230469 369.875 106.929688 379.011719 106.929688 C 391.511719 106.929688 384.4375 33.203125 384.4375 24.355469 C 384.367188 19.488281 389.039062 16.261719 397.828125 16.125 Z M 397.828125 16.125 " fill-opacity="1" fill-rule="nonzero"/></g><g clip-path="url(#1fd6f148f4)"><path fill="#000000" d="M 734.609375 16.125 L 734.609375 0.078125 C 734.609375 0.078125 326.910156 0.078125 326.910156 0.078125 C 326.910156 5.699219 325.398438 14.066406 327.667969 18.9375 C 333.4375 15.78125 339.824219 12.695312 345.113281 18.664062 C 356.445312 31.488281 359.121094 60.5 354.863281 76.273438 C 353.355469 81.828125 350.8125 87.246094 351.15625 93.007812 C 351.5 98.769531 356.101562 104.875 361.734375 103.914062 C 365.375 103.296875 368.050781 99.867188 369.011719 96.230469 C 373.132812 80.59375 342.984375 16.125 377.597656 16.125 C 398.066406 16.125 392.433594 39.992188 392.433594 48.429688 C 392.433594 60.980469 386.734375 83.269531 397.035156 83.269531 C 407.199219 83.269531 401.636719 59.882812 401.636719 48.429688 C 401.636719 37.523438 405.964844 50.347656 418.875 38.414062 C 424.441406 33.273438 425.46875 43.832031 433.4375 43.832031 C 442.570312 43.832031 463.039062 31.351562 473 31.351562 C 491.199219 31.351562 490.03125 63.449219 490.03125 80.527344 C 490.03125 105.214844 475.195312 131.484375 492.984375 131.484375 C 510.703125 131.484375 497.792969 105.214844 497.792969 80.527344 C 497.792969 73.738281 501.777344 70.582031 508.574219 70.582031 C 522.242188 70.582031 520.527344 112.28125 520.527344 126.273438 C 520.527344 132.308594 512.492188 149.863281 524.167969 149.863281 C 538.863281 149.863281 528.5625 131.074219 528.5625 126.273438 C 528.5625 108.164062 528.011719 23.671875 553.011719 47.058594 C 559.8125 53.4375 564.414062 70.375 564.414062 74.832031 C 564.414062 86.90625 553.011719 138.960938 568.949219 138.960938 C 587.148438 138.960938 572.863281 86.90625 572.863281 74.832031 C 572.863281 65.027344 571.761719 42.257812 590.855469 42.257812 C 603.699219 42.257812 601.089844 52.40625 601.089844 60.363281 C 601.089844 67.5625 597.246094 78.332031 604.9375 78.332031 C 612.628906 78.332031 607.683594 67.632812 607.683594 60.363281 C 607.683594 48.15625 601.226562 7.550781 616.199219 7.550781 C 642.917969 7.550781 626.984375 109.46875 626.984375 115.4375 C 626.984375 121.8125 622.449219 152.8125 633.785156 152.8125 C 647.453125 152.8125 641.75 120.785156 641.75 115.4375 C 641.75 110.429688 633.785156 29.980469 646.285156 29.980469 C 661.050781 29.980469 657.683594 47.058594 657.683594 49.183594 C 657.683594 55.5625 653.703125 74.832031 661.117188 74.832031 C 670.253906 74.832031 663.386719 60.910156 663.386719 45.960938 C 663.386719 39.925781 663.386719 16.058594 690.722656 16.058594 C 706.65625 16.058594 712.355469 19.28125 712.355469 24.355469 C 712.355469 34.230469 706.65625 106.929688 715.789062 106.929688 C 728.289062 106.929688 721.214844 33.203125 721.214844 24.355469 C 721.148438 19.488281 725.816406 16.261719 734.609375 16.125 Z M 734.609375 16.125 " fill-opacity="1" fill-rule="nonzero"/></g><g clip-path="url(#c35510152c)"><path fill="#000000" d="M 1069.65625 16.125 L 1069.65625 0.078125 C 1069.65625 0.078125 661.957031 0.078125 661.957031 0.078125 C 661.957031 5.699219 660.445312 14.066406 662.714844 18.9375 C 668.484375 15.78125 674.871094 12.695312 680.160156 18.664062 C 691.492188 31.488281 694.171875 60.5 689.910156 76.273438 C 688.402344 81.828125 685.859375 87.246094 686.203125 93.007812 C 686.546875 98.769531 691.148438 104.875 696.78125 103.914062 C 700.421875 103.296875 703.097656 99.867188 704.058594 96.230469 C 708.179688 80.59375 678.03125 16.125 712.644531 16.125 C 733.113281 16.125 727.480469 39.992188 727.480469 48.429688 C 727.480469 60.980469 721.78125 83.269531 732.082031 83.269531 C 742.246094 83.269531 736.683594 59.882812 736.683594 48.429688 C 736.683594 37.523438 741.011719 50.347656 753.921875 38.414062 C 759.488281 33.273438 760.515625 43.832031 768.484375 43.832031 C 777.621094 43.832031 798.085938 31.351562 808.046875 31.351562 C 826.246094 31.351562 825.078125 63.449219 825.078125 80.527344 C 825.078125 105.214844 810.242188 131.484375 828.03125 131.484375 C 845.753906 131.484375 832.839844 105.214844 832.839844 80.527344 C 832.839844 73.738281 836.824219 70.582031 843.621094 70.582031 C 857.289062 70.582031 855.574219 112.28125 855.574219 126.273438 C 855.574219 132.308594 847.539062 149.863281 859.214844 149.863281 C 873.910156 149.863281 863.609375 131.074219 863.609375 126.273438 C 863.609375 108.164062 863.058594 23.671875 888.058594 47.058594 C 894.859375 53.4375 899.460938 70.375 899.460938 74.832031 C 899.460938 86.90625 888.058594 138.960938 903.996094 138.960938 C 922.195312 138.960938 907.910156 86.90625 907.910156 74.832031 C 907.910156 65.027344 906.8125 42.257812 925.902344 42.257812 C 938.746094 42.257812 936.136719 52.40625 936.136719 60.363281 C 936.136719 67.5625 932.292969 78.332031 939.984375 78.332031 C 947.675781 78.332031 942.730469 67.632812 942.730469 60.363281 C 942.730469 48.15625 936.273438 7.550781 951.246094 7.550781 C 977.964844 7.550781 962.03125 109.46875 962.03125 115.4375 C 962.03125 121.8125 957.5 152.8125 968.832031 152.8125 C 982.5 152.8125 976.796875 120.785156 976.796875 115.4375 C 976.796875 110.429688 968.832031 29.980469 981.332031 29.980469 C 996.097656 29.980469 992.730469 47.058594 992.730469 49.183594 C 992.730469 55.5625 988.75 74.832031 996.167969 74.832031 C 1005.300781 74.832031 998.433594 60.910156 998.433594 45.960938 C 998.433594 39.925781 998.433594 16.058594 1025.769531 16.058594 C 1041.703125 16.058594 1047.402344 19.28125 1047.402344 24.355469 C 1047.402344 34.230469 1041.703125 106.929688 1050.835938 106.929688 C 1063.335938 106.929688 1056.261719 33.203125 1056.261719 24.355469 C 1056.195312 19.488281 1060.863281 16.261719 1069.65625 16.125 Z M 1069.65625 16.125 " fill-opacity="1" fill-rule="nonzero"/></g></svg>