<svg xmlns="http://www.w3.org/2000/svg" xmlns:xlink="http://www.w3.org/1999/xlink" width="1400" zoomAndPan="magnify" viewBox="0 0 1050 404.99999" height="540" preserveAspectRatio="xMidYMid meet" version="1.0"><defs><g/></defs><g fill="#000000" fill-opacity="1"><g transform="translate(0.150318, 186.075732)"><g><path d="M 174.109375 -52.953125 C 174.472656 -52.117188 174.472656 -51.25 174.109375 -50.34375 C 173.753906 -49.445312 173.15625 -48.820312 172.3125 -48.46875 C 165.257812 -45.59375 158.53125 -42.660156 152.125 -39.671875 C 145.71875 -36.679688 139.585938 -33.75 133.734375 -30.875 C 124.753906 7.78125 113.625 40.03125 100.34375 65.875 C 90.644531 84.90625 80.226562 99.804688 69.09375 110.578125 C 57.96875 121.347656 47.144531 127.03125 36.625 127.625 C 36.019531 127.738281 35.421875 127.796875 34.828125 127.796875 C 28.597656 127.796875 23.300781 125.910156 18.9375 122.140625 C 14.570312 118.378906 11.609375 113.144531 10.046875 106.4375 C 8.609375 100.21875 8.664062 92.976562 10.21875 84.71875 C 11.78125 76.46875 15.132812 67.492188 20.28125 57.796875 C 25.425781 48.109375 32.664062 38.023438 42 27.546875 C 51.332031 17.078125 63.085938 6.488281 77.265625 -4.21875 C 91.453125 -14.925781 108.296875 -25.367188 127.796875 -35.546875 C 135.097656 -67.609375 140.722656 -103.148438 144.671875 -142.171875 C 145.035156 -145.640625 145.273438 -148.628906 145.390625 -151.140625 C 144.429688 -149.109375 143.414062 -146.832031 142.34375 -144.3125 C 141.269531 -141.800781 140.191406 -139.289062 139.109375 -136.78125 C 136.117188 -129.957031 132.675781 -122.207031 128.78125 -113.53125 C 124.894531 -104.851562 120.554688 -96 115.765625 -86.96875 C 110.984375 -77.9375 105.8125 -69.320312 100.25 -61.125 C 94.6875 -52.925781 88.789062 -45.894531 82.5625 -40.03125 C 67.007812 -25.425781 54.625 -19.617188 45.40625 -22.609375 C 43.257812 -23.210938 40.988281 -24.707031 38.59375 -27.09375 C 36.195312 -29.488281 34.398438 -33.5 33.203125 -39.125 C 32.242188 -44.269531 32.0625 -50.253906 32.65625 -57.078125 C 33.257812 -63.898438 34.578125 -71.050781 36.609375 -78.53125 C 38.648438 -86.007812 41.34375 -93.425781 44.6875 -100.78125 C 48.039062 -108.144531 51.988281 -115.054688 56.53125 -121.515625 C 61.082031 -127.984375 66.113281 -133.550781 71.625 -138.21875 C 72.34375 -138.8125 73.175781 -139.078125 74.125 -139.015625 C 75.082031 -138.960938 75.863281 -138.578125 76.46875 -137.859375 C 77.0625 -137.140625 77.328125 -136.300781 77.265625 -135.34375 C 77.210938 -134.382812 76.828125 -133.609375 76.109375 -133.015625 C 71.078125 -128.703125 66.46875 -123.550781 62.28125 -117.5625 C 58.09375 -111.582031 54.410156 -105.125 51.234375 -98.1875 C 48.066406 -91.25 45.46875 -84.28125 43.4375 -77.28125 C 41.40625 -70.28125 40.085938 -63.578125 39.484375 -57.171875 C 38.890625 -50.765625 39.070312 -45.171875 40.03125 -40.390625 C 40.507812 -38.234375 41.285156 -35.988281 42.359375 -33.65625 C 43.441406 -31.320312 45.175781 -29.796875 47.5625 -29.078125 C 48.757812 -28.722656 50.613281 -28.722656 53.125 -29.078125 C 55.644531 -29.441406 58.90625 -30.816406 62.90625 -33.203125 C 66.914062 -35.597656 71.851562 -39.546875 77.71875 -45.046875 C 83.707031 -50.671875 89.394531 -57.460938 94.78125 -65.421875 C 100.164062 -73.378906 105.191406 -81.785156 109.859375 -90.640625 C 114.523438 -99.503906 118.800781 -108.179688 122.6875 -116.671875 C 126.570312 -125.171875 129.953125 -132.769531 132.828125 -139.46875 C 135.941406 -146.644531 138.394531 -152.117188 140.1875 -155.890625 C 141.976562 -159.660156 143.503906 -162.203125 144.765625 -163.515625 C 146.023438 -164.835938 147.429688 -165.257812 148.984375 -164.78125 C 150.296875 -164.425781 151.25 -163.585938 151.84375 -162.265625 C 152.445312 -160.953125 152.6875 -158.675781 152.5625 -155.4375 C 152.445312 -152.207031 152.09375 -147.546875 151.5 -141.453125 C 147.789062 -104.472656 142.523438 -70.484375 135.703125 -39.484375 C 140.960938 -42.117188 146.4375 -44.722656 152.125 -47.296875 C 157.8125 -49.867188 163.644531 -52.351562 169.625 -54.75 C 170.46875 -55.101562 171.335938 -55.097656 172.234375 -54.734375 C 173.128906 -54.378906 173.753906 -53.785156 174.109375 -52.953125 Z M 94.234375 62.640625 C 106.554688 38.585938 117.03125 8.851562 125.65625 -26.5625 C 104.226562 -14.957031 86.898438 -3.625 73.671875 7.4375 C 60.453125 18.507812 50.253906 28.359375 43.078125 36.984375 C 32.785156 49.179688 25.304688 61.289062 20.640625 73.3125 C 15.972656 85.34375 14.71875 95.90625 16.875 105 C 18.070312 110.269531 20.34375 114.3125 23.6875 117.125 C 27.039062 119.9375 31.171875 121.160156 36.078125 120.796875 C 42.296875 120.441406 48.726562 117.867188 55.375 113.078125 C 62.019531 108.296875 68.660156 101.65625 75.296875 93.15625 C 81.941406 84.664062 88.253906 74.492188 94.234375 62.640625 Z M 94.234375 62.640625 "/></g></g></g><g fill="#000000" fill-opacity="1"><g transform="translate(170.282795, 186.075732)"><g><path d="M 75.203125 -39.84375 C 76.046875 -39.488281 76.613281 -38.863281 76.90625 -37.96875 C 77.207031 -37.070312 77.179688 -36.203125 76.828125 -35.359375 C 74.554688 -30.691406 72.070312 -26.023438 69.375 -21.359375 C 66.6875 -16.691406 63.875 -12.410156 60.9375 -8.515625 C 58.007812 -4.628906 54.988281 -1.519531 51.875 0.8125 C 48.757812 3.144531 45.648438 4.3125 42.546875 4.3125 C 41.941406 4.3125 41.28125 4.25 40.5625 4.125 C 32.550781 2.570312 27.585938 -8.195312 25.671875 -28.1875 C 23.628906 -25.425781 21.265625 -22.34375 18.578125 -18.9375 C 15.890625 -15.53125 13.046875 -12.148438 10.046875 -8.796875 C 9.566406 -8.316406 8.789062 -7.566406 7.71875 -6.546875 C 6.644531 -5.535156 5.390625 -4.726562 3.953125 -4.125 C 2.515625 -3.53125 1.078125 -3.59375 -0.359375 -4.3125 C -3.234375 -5.382812 -4.609375 -8.492188 -4.484375 -13.640625 C -4.484375 -16.628906 -3.914062 -20.335938 -2.78125 -24.765625 C -1.644531 -29.191406 -0.03125 -33.648438 2.0625 -38.140625 C 4.15625 -42.628906 6.609375 -46.609375 9.421875 -50.078125 C 12.234375 -53.546875 15.375 -55.878906 18.84375 -57.078125 C 21 -57.921875 23.628906 -58.070312 26.734375 -57.53125 C 29.847656 -56.988281 33.082031 -54.742188 36.4375 -50.796875 C 37.039062 -50.078125 37.3125 -49.238281 37.25 -48.28125 C 37.1875 -47.320312 36.796875 -46.546875 36.078125 -45.953125 C 35.359375 -45.347656 34.519531 -45.078125 33.5625 -45.140625 C 32.601562 -45.203125 31.828125 -45.59375 31.234375 -46.3125 C 28.359375 -49.664062 25.875 -51.25 23.78125 -51.0625 C 21.6875 -50.882812 19.921875 -50.257812 18.484375 -49.1875 C 15.859375 -47.269531 13.46875 -44.515625 11.3125 -40.921875 C 9.15625 -37.335938 7.359375 -33.566406 5.921875 -29.609375 C 4.484375 -25.660156 3.460938 -21.984375 2.859375 -18.578125 C 2.265625 -15.171875 2.085938 -12.6875 2.328125 -11.125 C 2.691406 -11.363281 3.082031 -11.660156 3.5 -12.015625 C 3.914062 -12.378906 4.363281 -12.863281 4.84375 -13.46875 C 8.4375 -17.414062 11.726562 -21.332031 14.71875 -25.21875 C 17.707031 -29.101562 20.28125 -32.546875 22.4375 -35.546875 C 23.03125 -36.378906 23.597656 -37.179688 24.140625 -37.953125 C 24.679688 -38.734375 25.191406 -39.425781 25.671875 -40.03125 C 26.628906 -41.226562 27.882812 -41.585938 29.4375 -41.109375 C 30.988281 -40.742188 31.828125 -39.722656 31.953125 -38.046875 C 32.304688 -30.273438 32.929688 -24.023438 33.828125 -19.296875 C 34.734375 -14.566406 35.722656 -11.035156 36.796875 -8.703125 C 37.867188 -6.367188 38.882812 -4.78125 39.84375 -3.9375 C 40.800781 -3.101562 41.519531 -2.6875 42 -2.6875 C 44.269531 -2.207031 47.914062 -4.539062 52.9375 -9.6875 C 57.96875 -14.832031 63.835938 -24.347656 70.546875 -38.234375 C 71.023438 -39.191406 71.710938 -39.816406 72.609375 -40.109375 C 73.503906 -40.410156 74.367188 -40.320312 75.203125 -39.84375 Z M 75.203125 -39.84375 "/></g></g></g><g fill="#000000" fill-opacity="1"><g transform="translate(237.043628, 186.075732)"><g><path d="M 101.234375 -40.203125 C 101.953125 -39.609375 102.34375 -38.832031 102.40625 -37.875 C 102.46875 -36.914062 102.195312 -36.078125 101.59375 -35.359375 C 86.394531 -17.523438 74.367188 -10.285156 65.515625 -13.640625 C 59.171875 -16.035156 55.757812 -23.632812 55.28125 -36.4375 C 53.96875 -34.039062 52.5625 -31.316406 51.0625 -28.265625 C 49.570312 -25.210938 48.347656 -22.734375 47.390625 -20.828125 C 46.671875 -19.023438 45.953125 -17.40625 45.234375 -15.96875 C 44.515625 -14.539062 43.859375 -13.347656 43.265625 -12.390625 C 42.898438 -11.671875 42.269531 -10.625 41.375 -9.25 C 40.476562 -7.875 39.34375 -6.675781 37.96875 -5.65625 C 36.59375 -4.632812 35.003906 -4.363281 33.203125 -4.84375 C 31.046875 -5.445312 29.429688 -7.035156 28.359375 -9.609375 C 27.285156 -12.179688 26.628906 -14.988281 26.390625 -18.03125 C 26.148438 -21.082031 26.03125 -23.566406 26.03125 -25.484375 C 26.03125 -27.046875 26.03125 -28.539062 26.03125 -29.96875 C 26.03125 -31.40625 26.085938 -32.722656 26.203125 -33.921875 C 22.015625 -27.941406 18.003906 -21.75 14.171875 -15.34375 C 10.347656 -8.945312 6.28125 -1.617188 1.96875 6.640625 C 0.539062 9.390625 -1.007812 10.765625 -2.6875 10.765625 C -3.289062 10.765625 -3.832031 10.585938 -4.3125 10.234375 C -4.90625 9.992188 -5.441406 9.601562 -5.921875 9.0625 C -6.398438 8.519531 -6.671875 7.441406 -6.734375 5.828125 C -6.796875 4.210938 -6.554688 1.734375 -6.015625 -1.609375 C -5.472656 -4.960938 -4.425781 -9.628906 -2.875 -15.609375 C -1.070312 -22.910156 1.050781 -30.148438 3.5 -37.328125 C 5.957031 -44.515625 8.441406 -50.976562 10.953125 -56.71875 C 11.304688 -57.675781 11.929688 -58.332031 12.828125 -58.6875 C 13.734375 -59.050781 14.601562 -58.992188 15.4375 -58.515625 C 16.394531 -58.160156 17.019531 -57.53125 17.3125 -56.625 C 17.613281 -55.726562 17.585938 -54.863281 17.234375 -54.03125 C 14.003906 -46.488281 11.101562 -38.617188 8.53125 -30.421875 C 5.957031 -22.222656 3.953125 -15.070312 2.515625 -8.96875 C 6.222656 -15.550781 9.867188 -21.6875 13.453125 -27.375 C 17.046875 -33.0625 20.816406 -38.597656 24.765625 -43.984375 C 25.128906 -44.460938 25.757812 -45.117188 26.65625 -45.953125 C 27.550781 -46.785156 28.773438 -46.960938 30.328125 -46.484375 C 31.890625 -45.890625 32.757812 -44.753906 32.9375 -43.078125 C 33.113281 -41.398438 33.144531 -38.585938 33.03125 -34.640625 C 33.03125 -33.328125 33 -31.890625 32.9375 -30.328125 C 32.875 -28.773438 32.84375 -27.160156 32.84375 -25.484375 C 32.84375 -21.898438 33.082031 -18.96875 33.5625 -16.6875 C 34.039062 -14.414062 34.460938 -12.863281 34.828125 -12.03125 C 35.066406 -12.269531 35.394531 -12.6875 35.8125 -13.28125 C 36.226562 -13.882812 36.738281 -14.660156 37.34375 -15.609375 C 37.8125 -16.453125 38.375 -17.59375 39.03125 -19.03125 C 39.695312 -20.46875 40.445312 -22.019531 41.28125 -23.6875 C 44.394531 -30.394531 46.9375 -35.539062 48.90625 -39.125 C 50.882812 -42.71875 52.59375 -45.171875 54.03125 -46.484375 C 55.46875 -47.804688 56.960938 -48.285156 58.515625 -47.921875 C 60.429688 -47.441406 61.535156 -46.273438 61.828125 -44.421875 C 62.128906 -42.566406 62.28125 -41.101562 62.28125 -40.03125 C 62.164062 -34.40625 62.613281 -29.859375 63.625 -26.390625 C 64.644531 -22.921875 66.113281 -20.828125 68.03125 -20.109375 C 70.1875 -19.265625 73.625 -20.21875 78.34375 -22.96875 C 83.070312 -25.726562 89.085938 -31.351562 96.390625 -39.84375 C 96.984375 -40.5625 97.757812 -40.953125 98.71875 -41.015625 C 99.675781 -41.078125 100.515625 -40.804688 101.234375 -40.203125 Z M 101.234375 -40.203125 "/></g></g></g><g fill="#000000" fill-opacity="1"><g transform="translate(330.544727, 186.075732)"><g><path d="M 60.671875 -40.03125 C 61.503906 -39.550781 61.976562 -38.832031 62.09375 -37.875 C 62.21875 -36.914062 62.039062 -36.078125 61.5625 -35.359375 C 54.507812 -25.546875 48.050781 -17.4375 42.1875 -11.03125 C 36.320312 -4.632812 30.457031 0.65625 24.59375 4.84375 C 20.164062 7.957031 15.796875 9.515625 11.484375 9.515625 C 8.140625 9.515625 5.207031 8.617188 2.6875 6.828125 C 1.007812 5.628906 -0.632812 3.503906 -2.25 0.453125 C -3.863281 -2.597656 -4.726562 -7.023438 -4.84375 -12.828125 C -4.96875 -18.640625 -3.53125 -26.269531 -0.53125 -35.71875 C -0.53125 -35.71875 -0.53125 -35.78125 -0.53125 -35.90625 C 3.050781 -47.382812 7.265625 -56.144531 12.109375 -62.1875 C 16.960938 -68.238281 21.125 -71.320312 24.59375 -71.4375 C 27.34375 -71.5625 29.132812 -70.363281 29.96875 -67.84375 C 31.289062 -64.375 29.738281 -59.4375 25.3125 -53.03125 C 20.882812 -46.632812 14.363281 -39.847656 5.75 -32.671875 C 3.113281 -24.296875 1.851562 -17.742188 1.96875 -13.015625 C 2.09375 -8.285156 2.753906 -4.875 3.953125 -2.78125 C 5.148438 -0.6875 6.109375 0.65625 6.828125 1.25 C 10.410156 3.882812 15.015625 3.171875 20.640625 -0.890625 C 26.148438 -4.722656 31.710938 -9.71875 37.328125 -15.875 C 42.953125 -22.039062 49.117188 -29.851562 55.828125 -39.3125 C 56.421875 -40.03125 57.195312 -40.476562 58.15625 -40.65625 C 59.113281 -40.832031 59.953125 -40.625 60.671875 -40.03125 Z M 23.328125 -63.90625 C 22.015625 -63.0625 20.222656 -61.289062 17.953125 -58.59375 C 15.679688 -55.90625 13.347656 -51.988281 10.953125 -46.84375 C 15.253906 -51.03125 18.300781 -54.585938 20.09375 -57.515625 C 21.894531 -60.453125 22.972656 -62.582031 23.328125 -63.90625 Z M 23.328125 -63.90625 "/></g></g></g><g fill="#000000" fill-opacity="1"><g transform="translate(382.768946, 186.075732)"><g><path d="M 52.765625 -168.1875 C 54.328125 -165.914062 54.359375 -161.304688 52.859375 -154.359375 C 51.367188 -147.421875 48.289062 -138.835938 43.625 -128.609375 C 38.957031 -118.378906 32.734375 -107.039062 24.953125 -94.59375 C 24.828125 -94.476562 24.707031 -94.359375 24.59375 -94.234375 C 21.476562 -81.546875 18.394531 -68.617188 15.34375 -55.453125 C 12.289062 -42.296875 9.390625 -29.375 6.640625 -16.6875 C 3.890625 -4.007812 1.378906 7.921875 -0.890625 19.109375 C -3.171875 30.304688 -5.117188 40.269531 -6.734375 49 C -8.347656 57.738281 -9.515625 64.738281 -10.234375 70 C -10.109375 70 -9.988281 70 -9.875 70 C -8.914062 70.363281 -8.226562 70.960938 -7.8125 71.796875 C -7.394531 72.640625 -7.363281 73.539062 -7.71875 74.5 C -8.550781 76.769531 -9.414062 78.832031 -10.3125 80.6875 C -11.21875 82.539062 -12.445312 83.46875 -14 83.46875 C -14.363281 83.46875 -14.78125 83.40625 -15.25 83.28125 C -16.332031 82.925781 -17.113281 82.179688 -17.59375 81.046875 C -18.070312 79.910156 -18.128906 77.632812 -17.765625 74.21875 C -17.410156 70.8125 -16.632812 65.578125 -15.4375 58.515625 C -13.28125 45.585938 -10.050781 28.710938 -5.75 7.890625 C -2.632812 -6.703125 0.625 -21.566406 4.03125 -36.703125 C 7.445312 -51.847656 10.828125 -66.445312 14.171875 -80.5 C 17.523438 -94.5625 20.757812 -107.335938 23.875 -118.828125 C 24.46875 -121.097656 25.363281 -124.269531 26.5625 -128.34375 C 27.757812 -132.414062 29.132812 -136.785156 30.6875 -141.453125 C 32.25 -146.117188 33.984375 -150.601562 35.890625 -154.90625 C 37.804688 -159.21875 39.78125 -162.78125 41.8125 -165.59375 C 43.851562 -168.40625 45.890625 -169.988281 47.921875 -170.34375 C 49.960938 -170.707031 51.578125 -169.988281 52.765625 -168.1875 Z M 30.875 -118.296875 C 36.613281 -129.066406 40.648438 -138.039062 42.984375 -145.21875 C 45.316406 -152.394531 46.664062 -157.597656 47.03125 -160.828125 C 45.351562 -158.429688 43.078125 -153.910156 40.203125 -147.265625 C 37.335938 -140.628906 34.226562 -130.972656 30.875 -118.296875 Z M 30.875 -118.296875 "/></g></g></g><g fill="#000000" fill-opacity="1"><g transform="translate(410.04761, 186.075732)"><g><path d="M 52.59375 -40.921875 C 53.425781 -40.441406 53.929688 -39.722656 54.109375 -38.765625 C 54.296875 -37.816406 54.148438 -36.921875 53.671875 -36.078125 C 51.398438 -32.484375 48.523438 -28.472656 45.046875 -24.046875 C 41.578125 -19.617188 37.804688 -15.398438 33.734375 -11.390625 C 29.671875 -7.390625 25.632812 -4.070312 21.625 -1.4375 C 17.613281 1.195312 13.9375 2.515625 10.59375 2.515625 C 9.15625 2.515625 7.898438 2.273438 6.828125 1.796875 C 2.753906 0.00390625 0.507812 -4.332031 0.09375 -11.21875 C -0.320312 -18.101562 1.082031 -27.828125 4.3125 -40.390625 C 4.550781 -41.347656 5.085938 -42.066406 5.921875 -42.546875 C 6.765625 -43.023438 7.601562 -43.144531 8.4375 -42.90625 C 9.394531 -42.664062 10.113281 -42.125 10.59375 -41.28125 C 11.070312 -40.445312 11.191406 -39.609375 10.953125 -38.765625 C 9.035156 -31.109375 7.835938 -25.035156 7.359375 -20.546875 C 6.878906 -16.066406 6.785156 -12.6875 7.078125 -10.40625 C 7.378906 -8.132812 7.828125 -6.609375 8.421875 -5.828125 C 9.023438 -5.054688 9.390625 -4.671875 9.515625 -4.671875 C 11.066406 -3.953125 13.335938 -4.457031 16.328125 -6.1875 C 19.328125 -7.925781 22.679688 -10.5 26.390625 -13.90625 C 30.097656 -17.320312 33.835938 -21.269531 37.609375 -25.75 C 41.378906 -30.238281 44.757812 -34.9375 47.75 -39.84375 C 48.34375 -40.6875 49.085938 -41.195312 49.984375 -41.375 C 50.890625 -41.550781 51.757812 -41.398438 52.59375 -40.921875 Z M 10.234375 -55.28125 C 7.835938 -55.40625 6.609375 -56.09375 6.546875 -57.34375 C 6.492188 -58.601562 7.035156 -59.890625 8.171875 -61.203125 C 9.304688 -62.523438 10.472656 -63.425781 11.671875 -63.90625 C 13.585938 -64.5 14.992188 -64.375 15.890625 -63.53125 C 16.785156 -62.695312 17.203125 -61.625 17.140625 -60.3125 C 17.078125 -59 16.476562 -57.800781 15.34375 -56.71875 C 14.207031 -55.644531 12.503906 -55.164062 10.234375 -55.28125 Z M 10.234375 -55.28125 "/></g></g></g><g fill="#000000" fill-opacity="1"><g transform="translate(455.452163, 186.075732)"><g><path d="M 72.34375 -40.03125 C 73.175781 -39.550781 73.710938 -38.863281 73.953125 -37.96875 C 74.191406 -37.070312 74.070312 -36.203125 73.59375 -35.359375 C 67.96875 -25.429688 62.910156 -17.800781 58.421875 -12.46875 C 53.941406 -7.144531 49.367188 -4.785156 44.703125 -5.390625 C 38.710938 -6.109375 33.984375 -12.566406 30.515625 -24.765625 C 29.316406 -28.710938 28.269531 -31.554688 27.375 -33.296875 C 26.476562 -35.035156 25.757812 -36.113281 25.21875 -36.53125 C 24.675781 -36.945312 24.285156 -37.15625 24.046875 -37.15625 C 23.691406 -37.28125 22.972656 -36.921875 21.890625 -36.078125 C 20.816406 -35.242188 19.265625 -33.390625 17.234375 -30.515625 C 15.203125 -27.640625 12.6875 -23.179688 9.6875 -17.140625 C 6.695312 -11.097656 3.050781 -2.8125 -1.25 7.71875 C -1.851562 9.15625 -2.875 9.875 -4.3125 9.875 C -4.664062 9.875 -4.960938 9.8125 -5.203125 9.6875 C -7.234375 9.207031 -8.128906 7.953125 -7.890625 5.921875 C -7.296875 1.015625 -6.21875 -4.664062 -4.65625 -11.125 C -3.101562 -17.59375 -1.398438 -24.175781 0.453125 -30.875 C 2.304688 -37.570312 4.007812 -43.554688 5.5625 -48.828125 C 5.925781 -50.023438 6.253906 -51.128906 6.546875 -52.140625 C 6.847656 -53.160156 7.117188 -54.148438 7.359375 -55.109375 C 7.710938 -56.066406 8.304688 -56.753906 9.140625 -57.171875 C 9.984375 -57.585938 10.828125 -57.675781 11.671875 -57.4375 C 12.628906 -57.195312 13.347656 -56.65625 13.828125 -55.8125 C 14.304688 -54.976562 14.363281 -54.082031 14 -53.125 C 13.757812 -52.175781 13.488281 -51.191406 13.1875 -50.171875 C 12.894531 -49.148438 12.566406 -48.039062 12.203125 -46.84375 C 11.367188 -43.738281 10.410156 -40.328125 9.328125 -36.609375 C 8.253906 -32.898438 7.179688 -29.132812 6.109375 -25.3125 C 10.171875 -32.96875 13.640625 -38.050781 16.515625 -40.5625 C 19.390625 -43.082031 22.019531 -44.28125 24.40625 -44.15625 C 27.757812 -43.914062 30.394531 -42.0625 32.3125 -38.59375 C 34.226562 -35.125 35.84375 -31.113281 37.15625 -26.5625 C 38.945312 -20.34375 40.617188 -16.394531 42.171875 -14.71875 C 43.734375 -13.039062 44.875 -12.203125 45.59375 -12.203125 C 47.144531 -11.960938 48.96875 -12.828125 51.0625 -14.796875 C 53.15625 -16.773438 55.25 -19.289062 57.34375 -22.34375 C 59.4375 -25.394531 61.410156 -28.414062 63.265625 -31.40625 C 65.128906 -34.40625 66.535156 -36.859375 67.484375 -38.765625 C 67.960938 -39.609375 68.679688 -40.148438 69.640625 -40.390625 C 70.597656 -40.628906 71.5 -40.507812 72.34375 -40.03125 Z M 72.34375 -40.03125 "/></g></g></g><g fill="#000000" fill-opacity="1"><g transform="translate(519.521003, 186.075732)"><g/></g></g><g fill="#000000" fill-opacity="1"><g transform="translate(574.616583, 186.075732)"><g><path d="M 162.984375 -174.46875 C 165.859375 -172.5625 168.582031 -169.898438 171.15625 -166.484375 C 173.726562 -163.078125 175.671875 -158.800781 176.984375 -153.65625 C 178.304688 -148.507812 178.632812 -142.253906 177.96875 -134.890625 C 177.3125 -127.535156 175.25 -118.890625 171.78125 -108.953125 C 166.394531 -93.992188 159.992188 -80.410156 152.578125 -68.203125 C 145.160156 -56.003906 136.960938 -45.65625 127.984375 -37.15625 C 120.679688 -30.21875 113.171875 -24.832031 105.453125 -21 C 97.734375 -17.164062 90.40625 -15.25 83.46875 -15.25 C 82.75 -15.25 82.03125 -15.3125 81.3125 -15.4375 C 70.425781 -16.15625 62.707031 -21.300781 58.15625 -30.875 C 55.28125 -18.550781 52.4375 -6.4375 49.625 5.46875 C 46.8125 17.375 44.207031 28.648438 41.8125 39.296875 C 39.425781 49.953125 37.394531 59.5 35.71875 67.9375 C 34.039062 76.375 32.84375 83.226562 32.125 88.5 C 32.363281 88.019531 32.601562 87.476562 32.84375 86.875 C 33.207031 86.039062 33.835938 85.441406 34.734375 85.078125 C 35.628906 84.722656 36.5 84.722656 37.34375 85.078125 C 38.175781 85.554688 38.769531 86.242188 39.125 87.140625 C 39.488281 88.046875 39.488281 88.914062 39.125 89.75 C 36.976562 94.414062 35.1875 97.851562 33.75 100.0625 C 32.3125 102.28125 30.753906 103.390625 29.078125 103.390625 C 28.597656 103.390625 28.117188 103.269531 27.640625 103.03125 C 26.441406 102.675781 25.570312 101.835938 25.03125 100.515625 C 24.5 99.203125 24.351562 96.957031 24.59375 93.78125 C 24.832031 90.613281 25.488281 86.039062 26.5625 80.0625 C 28.363281 69.164062 31.535156 53.546875 36.078125 33.203125 C 38.953125 20.640625 42.09375 7.179688 45.5 -7.171875 C 48.914062 -21.535156 52.414062 -36.164062 56 -51.0625 C 59.59375 -65.96875 63.125 -80.476562 66.59375 -94.59375 C 69.945312 -108.238281 73.054688 -121.015625 75.921875 -132.921875 C 78.796875 -144.828125 81.3125 -155.269531 83.46875 -164.25 C 75.6875 -160.894531 68.144531 -157.003906 60.84375 -152.578125 C 53.550781 -148.148438 47.03125 -143.421875 41.28125 -138.390625 C 33.382812 -131.453125 27.550781 -124.960938 23.78125 -118.921875 C 20.007812 -112.878906 17.644531 -107.253906 16.6875 -102.046875 C 15.726562 -96.835938 15.640625 -92.226562 16.421875 -88.21875 C 17.203125 -84.21875 18.25 -80.898438 19.5625 -78.265625 C 20.039062 -77.421875 20.128906 -76.550781 19.828125 -75.65625 C 19.535156 -74.757812 18.96875 -74.070312 18.125 -73.59375 C 17.289062 -73.238281 16.425781 -73.207031 15.53125 -73.5 C 14.632812 -73.800781 13.945312 -74.367188 13.46875 -75.203125 C 8.195312 -85.734375 7.566406 -96.984375 11.578125 -108.953125 C 15.585938 -120.921875 23.9375 -132.46875 36.625 -143.59375 C 43.4375 -149.457031 51 -154.875 59.3125 -159.84375 C 67.632812 -164.8125 76.34375 -169.03125 85.4375 -172.5 C 85.914062 -174.894531 86.394531 -177.050781 86.875 -178.96875 C 87 -179.800781 87.476562 -180.484375 88.3125 -181.015625 C 89.15625 -181.554688 90.050781 -181.707031 91 -181.46875 C 91.84375 -181.351562 92.53125 -180.875 93.0625 -180.03125 C 93.601562 -179.195312 93.753906 -178.300781 93.515625 -177.34375 C 93.515625 -176.988281 93.453125 -176.628906 93.328125 -176.265625 C 93.210938 -175.910156 93.15625 -175.613281 93.15625 -175.375 C 96.144531 -176.332031 99.140625 -177.226562 102.140625 -178.0625 C 114.941406 -181.53125 126.578125 -182.960938 137.046875 -182.359375 C 147.515625 -181.765625 156.160156 -179.132812 162.984375 -174.46875 Z M 165.140625 -111.296875 C 166.929688 -116.203125 168.425781 -121.375 169.625 -126.8125 C 170.820312 -132.257812 171.421875 -137.613281 171.421875 -142.875 C 171.421875 -148.144531 170.460938 -153.023438 168.546875 -157.515625 C 166.628906 -162.003906 163.457031 -165.800781 159.03125 -168.90625 C 153.164062 -172.851562 145.414062 -175.035156 135.78125 -175.453125 C 126.15625 -175.878906 115.539062 -174.535156 103.9375 -171.421875 C 99.738281 -170.222656 95.488281 -168.847656 91.1875 -167.296875 C 89.15625 -158.078125 86.582031 -147.09375 83.46875 -134.34375 C 80.351562 -121.601562 77.003906 -107.816406 73.421875 -92.984375 C 71.378906 -85.085938 69.3125 -76.859375 67.21875 -68.296875 C 65.125 -59.742188 63 -50.976562 60.84375 -42 C 61.6875 -41.519531 62.226562 -40.800781 62.46875 -39.84375 C 64.863281 -28.832031 71.265625 -22.972656 81.671875 -22.265625 C 87.773438 -21.898438 94.472656 -23.453125 101.765625 -26.921875 C 109.066406 -30.390625 116.25 -35.476562 123.3125 -42.1875 C 127.257812 -45.894531 131.65625 -50.828125 136.5 -56.984375 C 141.351562 -63.148438 146.257812 -70.691406 151.21875 -79.609375 C 156.1875 -88.523438 160.828125 -99.085938 165.140625 -111.296875 Z M 165.140625 -111.296875 "/></g></g></g><g fill="#000000" fill-opacity="1"><g transform="translate(732.904436, 186.075732)"><g><path d="M 60.671875 -40.03125 C 61.503906 -39.550781 61.976562 -38.832031 62.09375 -37.875 C 62.21875 -36.914062 62.039062 -36.078125 61.5625 -35.359375 C 54.507812 -25.546875 48.050781 -17.4375 42.1875 -11.03125 C 36.320312 -4.632812 30.457031 0.65625 24.59375 4.84375 C 20.164062 7.957031 15.796875 9.515625 11.484375 9.515625 C 8.140625 9.515625 5.207031 8.617188 2.6875 6.828125 C 1.007812 5.628906 -0.632812 3.503906 -2.25 0.453125 C -3.863281 -2.597656 -4.726562 -7.023438 -4.84375 -12.828125 C -4.96875 -18.640625 -3.53125 -26.269531 -0.53125 -35.71875 C -0.53125 -35.71875 -0.53125 -35.78125 -0.53125 -35.90625 C 3.050781 -47.382812 7.265625 -56.144531 12.109375 -62.1875 C 16.960938 -68.238281 21.125 -71.320312 24.59375 -71.4375 C 27.34375 -71.5625 29.132812 -70.363281 29.96875 -67.84375 C 31.289062 -64.375 29.738281 -59.4375 25.3125 -53.03125 C 20.882812 -46.632812 14.363281 -39.847656 5.75 -32.671875 C 3.113281 -24.296875 1.851562 -17.742188 1.96875 -13.015625 C 2.09375 -8.285156 2.753906 -4.875 3.953125 -2.78125 C 5.148438 -0.6875 6.109375 0.65625 6.828125 1.25 C 10.410156 3.882812 15.015625 3.171875 20.640625 -0.890625 C 26.148438 -4.722656 31.710938 -9.71875 37.328125 -15.875 C 42.953125 -22.039062 49.117188 -29.851562 55.828125 -39.3125 C 56.421875 -40.03125 57.195312 -40.476562 58.15625 -40.65625 C 59.113281 -40.832031 59.953125 -40.625 60.671875 -40.03125 Z M 23.328125 -63.90625 C 22.015625 -63.0625 20.222656 -61.289062 17.953125 -58.59375 C 15.679688 -55.90625 13.347656 -51.988281 10.953125 -46.84375 C 15.253906 -51.03125 18.300781 -54.585938 20.09375 -57.515625 C 21.894531 -60.453125 22.972656 -62.582031 23.328125 -63.90625 Z M 23.328125 -63.90625 "/></g></g></g><g fill="#000000" fill-opacity="1"><g transform="translate(785.128655, 186.075732)"><g><path d="M 90.109375 -39.125 C 90.941406 -38.53125 91.390625 -37.753906 91.453125 -36.796875 C 91.515625 -35.835938 91.242188 -35 90.640625 -34.28125 C 86.097656 -29.019531 80.894531 -25.222656 75.03125 -22.890625 C 69.164062 -20.554688 63.601562 -20.109375 58.34375 -21.546875 C 52.238281 -23.097656 47.507812 -26.863281 44.15625 -32.84375 C 41.164062 -22.4375 36.617188 -12.207031 30.515625 -2.15625 C 26.441406 4.664062 22.3125 10.320312 18.125 14.8125 C 13.9375 19.300781 10.171875 22.082031 6.828125 23.15625 C 5.628906 23.507812 4.488281 23.6875 3.40625 23.6875 C 2.09375 23.6875 0.988281 23.414062 0.09375 22.875 C -0.800781 22.34375 -1.488281 21.898438 -1.96875 21.546875 C -2.445312 20.941406 -3.078125 20.007812 -3.859375 18.75 C -4.640625 17.5 -5.175781 15.46875 -5.46875 12.65625 C -5.769531 9.84375 -5.617188 5.800781 -5.015625 0.53125 C -4.421875 -4.726562 -3.078125 -11.578125 -0.984375 -20.015625 C 1.109375 -28.453125 4.25 -38.894531 8.4375 -51.34375 C 8.675781 -52.175781 9.242188 -52.800781 10.140625 -53.21875 C 11.035156 -53.632812 11.90625 -53.722656 12.75 -53.484375 C 13.707031 -53.128906 14.394531 -52.53125 14.8125 -51.6875 C 15.226562 -50.851562 15.257812 -49.957031 14.90625 -49 C 11.1875 -37.75 8.335938 -28.265625 6.359375 -20.546875 C 4.390625 -12.828125 3.046875 -6.546875 2.328125 -1.703125 C 1.609375 3.140625 1.28125 6.847656 1.34375 9.421875 C 1.40625 11.992188 1.644531 13.785156 2.0625 14.796875 C 2.476562 15.816406 2.75 16.390625 2.875 16.515625 C 2.988281 16.628906 3.132812 16.71875 3.3125 16.78125 C 3.5 16.84375 3.953125 16.753906 4.671875 16.515625 C 7.179688 15.671875 10.226562 13.242188 13.8125 9.234375 C 17.40625 5.234375 21.023438 0.210938 24.671875 -5.828125 C 28.328125 -11.878906 31.53125 -18.375 34.28125 -25.3125 C 37.03125 -32.25 38.882812 -39.066406 39.84375 -45.765625 C 40.082031 -47.679688 41.222656 -48.703125 43.265625 -48.828125 C 45.171875 -48.828125 46.304688 -47.867188 46.671875 -45.953125 C 48.585938 -35.898438 53.070312 -29.976562 60.125 -28.1875 C 64.082031 -27.101562 68.363281 -27.519531 72.96875 -29.4375 C 77.570312 -31.351562 81.671875 -34.460938 85.265625 -38.765625 C 85.984375 -39.484375 86.789062 -39.875 87.6875 -39.9375 C 88.582031 -40 89.390625 -39.726562 90.109375 -39.125 Z M 90.109375 -39.125 "/></g></g></g><g fill="#000000" fill-opacity="1"><g transform="translate(869.836008, 186.075732)"><g><path d="M 60.671875 -40.03125 C 61.503906 -39.550781 61.976562 -38.832031 62.09375 -37.875 C 62.21875 -36.914062 62.039062 -36.078125 61.5625 -35.359375 C 54.507812 -25.546875 48.050781 -17.4375 42.1875 -11.03125 C 36.320312 -4.632812 30.457031 0.65625 24.59375 4.84375 C 20.164062 7.957031 15.796875 9.515625 11.484375 9.515625 C 8.140625 9.515625 5.207031 8.617188 2.6875 6.828125 C 1.007812 5.628906 -0.632812 3.503906 -2.25 0.453125 C -3.863281 -2.597656 -4.726562 -7.023438 -4.84375 -12.828125 C -4.96875 -18.640625 -3.53125 -26.269531 -0.53125 -35.71875 C -0.53125 -35.71875 -0.53125 -35.78125 -0.53125 -35.90625 C 3.050781 -47.382812 7.265625 -56.144531 12.109375 -62.1875 C 16.960938 -68.238281 21.125 -71.320312 24.59375 -71.4375 C 27.34375 -71.5625 29.132812 -70.363281 29.96875 -67.84375 C 31.289062 -64.375 29.738281 -59.4375 25.3125 -53.03125 C 20.882812 -46.632812 14.363281 -39.847656 5.75 -32.671875 C 3.113281 -24.296875 1.851562 -17.742188 1.96875 -13.015625 C 2.09375 -8.285156 2.753906 -4.875 3.953125 -2.78125 C 5.148438 -0.6875 6.109375 0.65625 6.828125 1.25 C 10.410156 3.882812 15.015625 3.171875 20.640625 -0.890625 C 26.148438 -4.722656 31.710938 -9.71875 37.328125 -15.875 C 42.953125 -22.039062 49.117188 -29.851562 55.828125 -39.3125 C 56.421875 -40.03125 57.195312 -40.476562 58.15625 -40.65625 C 59.113281 -40.832031 59.953125 -40.625 60.671875 -40.03125 Z M 23.328125 -63.90625 C 22.015625 -63.0625 20.222656 -61.289062 17.953125 -58.59375 C 15.679688 -55.90625 13.347656 -51.988281 10.953125 -46.84375 C 15.253906 -51.03125 18.300781 -54.585938 20.09375 -57.515625 C 21.894531 -60.453125 22.972656 -62.582031 23.328125 -63.90625 Z M 23.328125 -63.90625 "/></g></g></g><g fill="#000000" fill-opacity="1"><g transform="translate(922.060227, 186.075732)"><g><path d="M 79.875 -41.109375 C 80.59375 -40.503906 81.007812 -39.722656 81.125 -38.765625 C 81.25 -37.816406 80.953125 -36.984375 80.234375 -36.265625 C 76.765625 -32.191406 72.9375 -27.703125 68.75 -22.796875 C 64.5625 -17.890625 60.460938 -13.101562 56.453125 -8.4375 C 52.441406 -3.769531 49 0.265625 46.125 3.671875 C 43.257812 7.085938 41.347656 9.394531 40.390625 10.59375 C 38.359375 13.226562 36.382812 15.800781 34.46875 18.3125 C 36.019531 25.25 36.164062 31.796875 34.90625 37.953125 C 33.65625 44.117188 31.5625 49.59375 28.625 54.375 C 25.695312 59.164062 22.617188 62.878906 19.390625 65.515625 C 16.035156 68.390625 12.921875 69.828125 10.046875 69.828125 C 8.253906 69.828125 6.757812 69.226562 5.5625 68.03125 C 3.53125 66.113281 2.84375 63.269531 3.5 59.5 C 4.15625 55.726562 5.679688 51.445312 8.078125 46.65625 C 10.472656 41.875 13.34375 36.910156 16.6875 31.765625 C 20.039062 26.617188 23.453125 21.65625 26.921875 16.875 C 26.328125 14.71875 25.488281 12.53125 24.40625 10.3125 C 23.332031 8.101562 22.078125 5.863281 20.640625 3.59375 C 15.734375 -3.820312 11.570312 -10.789062 8.15625 -17.3125 C 4.75 -23.84375 3.164062 -29.800781 3.40625 -35.1875 C 4.007812 -45.113281 8.4375 -52.53125 16.6875 -57.4375 C 20.039062 -59.46875 23.570312 -60.660156 27.28125 -61.015625 C 30.988281 -61.378906 34.398438 -60.847656 37.515625 -59.421875 C 38.347656 -58.941406 38.914062 -58.25 39.21875 -57.34375 C 39.519531 -56.445312 39.488281 -55.582031 39.125 -54.75 C 38.644531 -53.90625 37.957031 -53.332031 37.0625 -53.03125 C 36.164062 -52.738281 35.300781 -52.769531 34.46875 -53.125 C 30.15625 -55.164062 25.425781 -54.628906 20.28125 -51.515625 C 14.0625 -47.804688 10.769531 -42.242188 10.40625 -34.828125 C 10.164062 -30.398438 11.660156 -25.191406 14.890625 -19.203125 C 18.128906 -13.222656 21.960938 -6.941406 26.390625 -0.359375 C 28.660156 3.109375 30.515625 6.640625 31.953125 10.234375 C 32.910156 9.035156 33.925781 7.71875 35 6.28125 C 35.957031 5.082031 37.898438 2.75 40.828125 -0.71875 C 43.765625 -4.1875 47.207031 -8.253906 51.15625 -12.921875 C 55.101562 -17.585938 59.203125 -22.375 63.453125 -27.28125 C 67.703125 -32.1875 71.5625 -36.675781 75.03125 -40.75 C 75.625 -41.46875 76.398438 -41.882812 77.359375 -42 C 78.316406 -42.125 79.15625 -41.828125 79.875 -41.109375 Z M 21.546875 52.765625 C 22.378906 51.453125 23.394531 49.566406 24.59375 47.109375 C 25.789062 44.660156 26.835938 41.671875 27.734375 38.140625 C 28.628906 34.609375 28.898438 30.691406 28.546875 26.390625 C 23.035156 34.160156 18.929688 40.617188 16.234375 45.765625 C 13.546875 50.910156 11.8125 54.828125 11.03125 57.515625 C 10.257812 60.210938 9.992188 61.984375 10.234375 62.828125 C 11.066406 62.828125 12.5625 62.046875 14.71875 60.484375 C 16.875 58.929688 19.148438 56.359375 21.546875 52.765625 Z M 21.546875 52.765625 "/></g></g></g><g fill="#000000" fill-opacity="1"><g transform="translate(994.420374, 186.075732)"><g/></g></g><g fill="#000000" fill-opacity="1"><g transform="translate(290.609348, 360.060562)"><g><path d="M 56.90625 -55.484375 C 65.757812 -54.429688 72.796875 -51.476562 78.015625 -46.625 C 83.234375 -41.78125 85.84375 -35.773438 85.84375 -28.609375 C 85.84375 -23.128906 84.257812 -18.175781 81.09375 -13.75 C 77.9375 -9.320312 73.5625 -5.816406 67.96875 -3.234375 C 62.382812 -0.660156 56.171875 0.625 49.328125 0.625 C 46.378906 0.625 43.003906 0.46875 39.203125 0.15625 C 37.734375 0.0507812 35.914062 -0.0507812 33.75 -0.15625 C 31.59375 -0.257812 29.195312 -0.3125 26.5625 -0.3125 L 15.015625 -0.15625 C 12.910156 -0.0507812 10.066406 0 6.484375 0 C 6.160156 0 6 -0.3125 6 -0.9375 C 6 -1.570312 6.160156 -1.890625 6.484375 -1.890625 C 9.535156 -1.890625 11.851562 -2.179688 13.4375 -2.765625 C 15.019531 -3.347656 16.148438 -4.398438 16.828125 -5.921875 C 17.515625 -7.453125 17.859375 -9.75 17.859375 -12.8125 L 17.859375 -86 C 17.859375 -90.425781 17.117188 -93.347656 15.640625 -94.765625 C 14.171875 -96.191406 11.171875 -96.90625 6.640625 -96.90625 C 6.429688 -96.90625 6.328125 -97.222656 6.328125 -97.859375 C 6.328125 -98.492188 6.429688 -98.8125 6.640625 -98.8125 L 15.015625 -98.65625 C 19.867188 -98.4375 23.71875 -98.328125 26.5625 -98.328125 C 29.507812 -98.328125 32.566406 -98.488281 35.734375 -98.8125 C 36.785156 -98.914062 38.363281 -99.019531 40.46875 -99.125 C 42.582031 -99.226562 44.425781 -99.28125 46 -99.28125 C 55.59375 -99.28125 63.023438 -97.539062 68.296875 -94.0625 C 73.566406 -90.582031 76.203125 -85.523438 76.203125 -78.890625 C 76.203125 -73.828125 74.539062 -69.238281 71.21875 -65.125 C 67.894531 -61.019531 63.125 -57.804688 56.90625 -55.484375 Z M 43.640625 -95.8125 C 40.578125 -95.8125 38.46875 -95.097656 37.3125 -93.671875 C 36.15625 -92.242188 35.578125 -89.582031 35.578125 -85.6875 L 35.578125 -55.65625 L 41.890625 -55.484375 C 47.367188 -55.484375 51.582031 -57.539062 54.53125 -61.65625 C 57.488281 -65.769531 58.96875 -71.039062 58.96875 -77.46875 C 58.96875 -83.476562 57.648438 -88.035156 55.015625 -91.140625 C 52.378906 -94.253906 48.585938 -95.8125 43.640625 -95.8125 Z M 46.640625 -3.3125 C 60.441406 -3.3125 67.34375 -10.484375 67.34375 -24.828125 C 67.34375 -32.941406 65.394531 -39.367188 61.5 -44.109375 C 57.601562 -48.847656 51.703125 -51.21875 43.796875 -51.21875 C 40.734375 -51.21875 37.992188 -51.113281 35.578125 -50.90625 L 35.578125 -12.8125 C 35.578125 -9.332031 36.257812 -6.878906 37.625 -5.453125 C 39 -4.023438 42.003906 -3.3125 46.640625 -3.3125 Z M 46.640625 -3.3125 "/></g></g></g><g fill="#000000" fill-opacity="1"><g transform="translate(384.67743, 360.060562)"><g><path d="M 66.234375 -8.53125 C 66.660156 -8.53125 66.953125 -8.289062 67.109375 -7.8125 C 67.265625 -7.34375 67.132812 -7.003906 66.71875 -6.796875 L 50.4375 0.953125 C 50.007812 1.160156 49.476562 1.265625 48.84375 1.265625 C 47.164062 1.265625 45.5625 0.367188 44.03125 -1.421875 C 42.5 -3.210938 41.414062 -5.632812 40.78125 -8.6875 L 33.984375 -3.953125 C 31.566406 -2.160156 29.300781 -0.867188 27.1875 -0.078125 C 25.082031 0.710938 22.710938 1.109375 20.078125 1.109375 C 15.546875 1.109375 12.117188 0.109375 9.796875 -1.890625 C 7.484375 -3.898438 6.328125 -6.695312 6.328125 -10.28125 C 6.328125 -13.125 7.007812 -15.414062 8.375 -17.15625 C 9.75 -18.894531 11.460938 -20.265625 13.515625 -21.265625 C 15.566406 -22.265625 18.441406 -23.394531 22.140625 -24.65625 L 26.078125 -26.078125 L 40.3125 -31.296875 L 40.3125 -40.3125 C 40.3125 -47.0625 39.757812 -51.960938 38.65625 -55.015625 C 37.550781 -58.066406 35.679688 -59.59375 33.046875 -59.59375 C 27.453125 -59.59375 24.289062 -55.273438 23.5625 -46.640625 C 23.238281 -43.472656 22.3125 -41.203125 20.78125 -39.828125 C 19.257812 -38.460938 17.128906 -37.78125 14.390625 -37.78125 C 11.753906 -37.78125 9.828125 -38.332031 8.609375 -39.4375 C 7.398438 -40.550781 6.796875 -42.003906 6.796875 -43.796875 C 6.796875 -46.953125 8.640625 -49.976562 12.328125 -52.875 C 16.015625 -55.78125 20.46875 -58.128906 25.6875 -59.921875 C 30.90625 -61.710938 35.515625 -62.609375 39.515625 -62.609375 C 44.160156 -62.609375 47.929688 -61.15625 50.828125 -58.25 C 53.722656 -55.351562 55.171875 -50.957031 55.171875 -45.0625 L 55.171875 -17.078125 C 55.171875 -14.015625 55.722656 -11.640625 56.828125 -9.953125 C 57.941406 -8.273438 59.5 -7.4375 61.5 -7.4375 C 62.976562 -7.4375 64.503906 -7.800781 66.078125 -8.53125 Z M 40.46875 -11.375 C 40.363281 -11.800781 40.3125 -12.488281 40.3125 -13.4375 L 40.3125 -28.609375 L 33.515625 -25.453125 C 33.203125 -25.347656 32.148438 -24.953125 30.359375 -24.265625 C 28.566406 -23.578125 27.007812 -22.441406 25.6875 -20.859375 C 24.375 -19.285156 23.71875 -17.441406 23.71875 -15.328125 C 23.71875 -12.804688 24.53125 -10.832031 26.15625 -9.40625 C 27.789062 -7.976562 29.664062 -7.265625 31.78125 -7.265625 C 33.46875 -7.265625 35.207031 -7.847656 37 -9.015625 Z M 40.46875 -11.375 "/></g></g></g><g fill="#000000" fill-opacity="1"><g transform="translate(451.236527, 360.060562)"><g><path d="M 78.578125 -1.890625 C 78.890625 -1.890625 79.046875 -1.570312 79.046875 -0.9375 C 79.046875 -0.3125 78.890625 0 78.578125 0 C 75.835938 0 73.675781 -0.0507812 72.09375 -0.15625 L 62.609375 -0.3125 L 50.4375 -0.15625 C 48.644531 -0.0507812 46.21875 0 43.15625 0 C 42.84375 0 42.6875 -0.3125 42.6875 -0.9375 C 42.6875 -1.570312 42.84375 -1.890625 43.15625 -1.890625 C 46.945312 -1.890625 48.84375 -3 48.84375 -5.21875 C 48.84375 -6.375 48.425781 -7.425781 47.59375 -8.375 L 29.5625 -31.453125 L 26.5625 -28.765625 L 26.5625 -12.8125 C 26.5625 -8.59375 27.164062 -5.71875 28.375 -4.1875 C 29.59375 -2.65625 31.832031 -1.890625 35.09375 -1.890625 C 35.519531 -1.890625 35.734375 -1.570312 35.734375 -0.9375 C 35.734375 -0.3125 35.519531 0 35.09375 0 C 32.351562 0 30.140625 -0.0507812 28.453125 -0.15625 L 19.28125 -0.3125 L 9.796875 -0.15625 C 8.222656 -0.0507812 6.0625 0 3.3125 0 C 3.101562 0 3 -0.3125 3 -0.9375 C 3 -1.570312 3.101562 -1.890625 3.3125 -1.890625 C 6.582031 -1.890625 8.820312 -2.65625 10.03125 -4.1875 C 11.25 -5.71875 11.859375 -8.59375 11.859375 -12.8125 L 11.859375 -93.109375 C 11.859375 -96.804688 11.515625 -99.441406 10.828125 -101.015625 C 10.140625 -102.597656 8.953125 -103.390625 7.265625 -103.390625 C 5.796875 -103.390625 3.796875 -102.8125 1.265625 -101.65625 L 1.109375 -101.65625 C 0.785156 -101.65625 0.492188 -101.941406 0.234375 -102.515625 C -0.0234375 -103.097656 -0.0507812 -103.441406 0.15625 -103.546875 L 23.234375 -114.453125 L 24.03125 -114.625 C 24.5625 -114.625 25.113281 -114.382812 25.6875 -113.90625 C 26.269531 -113.425781 26.5625 -112.976562 26.5625 -112.5625 L 26.5625 -32.40625 L 41.265625 -46.640625 C 44.003906 -49.171875 45.375 -51.753906 45.375 -54.390625 C 45.375 -55.753906 44.847656 -56.882812 43.796875 -57.78125 C 42.742188 -58.675781 41.265625 -59.125 39.359375 -59.125 C 39.148438 -59.125 39.046875 -59.441406 39.046875 -60.078125 C 39.046875 -60.710938 39.148438 -61.03125 39.359375 -61.03125 C 42.421875 -61.03125 44.796875 -60.972656 46.484375 -60.859375 L 58.96875 -60.703125 L 70.515625 -60.859375 C 71.984375 -60.972656 74.035156 -61.03125 76.671875 -61.03125 C 76.992188 -61.03125 77.15625 -60.710938 77.15625 -60.078125 C 77.15625 -59.441406 76.992188 -59.125 76.671875 -59.125 C 72.140625 -59.125 66.945312 -57.988281 61.09375 -55.71875 C 55.25 -53.457031 50.007812 -50.164062 45.375 -45.84375 L 39.6875 -40.625 L 61.34375 -12.8125 C 64.394531 -9.007812 67.316406 -6.238281 70.109375 -4.5 C 72.898438 -2.757812 75.722656 -1.890625 78.578125 -1.890625 Z M 78.578125 -1.890625 "/></g></g></g><g fill="#000000" fill-opacity="1"><g transform="translate(528.86246, 360.060562)"><g><path d="M 61.34375 -10.4375 C 61.550781 -10.4375 61.785156 -10.222656 62.046875 -9.796875 C 62.316406 -9.378906 62.34375 -9.066406 62.125 -8.859375 C 58.226562 -5.054688 54.273438 -2.3125 50.265625 -0.625 C 46.265625 1.050781 41.894531 1.890625 37.15625 1.890625 C 30.507812 1.890625 24.757812 0.492188 19.90625 -2.296875 C 15.0625 -5.085938 11.375 -8.828125 8.84375 -13.515625 C 6.320312 -18.203125 5.0625 -23.285156 5.0625 -28.765625 C 5.0625 -34.878906 6.585938 -40.519531 9.640625 -45.6875 C 12.703125 -50.851562 16.945312 -54.9375 22.375 -57.9375 C 27.800781 -60.945312 33.9375 -62.453125 40.78125 -62.453125 C 47.320312 -62.453125 52.382812 -60.972656 55.96875 -58.015625 C 59.550781 -55.066406 61.34375 -50.484375 61.34375 -44.265625 C 61.34375 -40.992188 60.757812 -39.359375 59.59375 -39.359375 L 21.1875 -39.203125 C 21.082031 -38.460938 21.03125 -37.253906 21.03125 -35.578125 C 21.03125 -26.296875 23.160156 -19.019531 27.421875 -13.75 C 31.691406 -8.476562 37.832031 -5.84375 45.84375 -5.84375 C 48.6875 -5.84375 51.109375 -6.160156 53.109375 -6.796875 C 55.117188 -7.429688 57.757812 -8.59375 61.03125 -10.28125 Z M 34.78125 -59.28125 C 31.300781 -59.28125 28.398438 -57.78125 26.078125 -54.78125 C 23.765625 -51.78125 22.238281 -47.644531 21.5 -42.375 L 44.421875 -42.6875 C 44.316406 -48.0625 43.523438 -52.171875 42.046875 -55.015625 C 40.578125 -57.859375 38.15625 -59.28125 34.78125 -59.28125 Z M 34.78125 -59.28125 "/></g></g></g><g fill="#000000" fill-opacity="1"><g transform="translate(594.947279, 360.060562)"><g><path d="M 47.265625 -62.609375 C 49.691406 -62.609375 52.035156 -61.738281 54.296875 -60 C 56.566406 -58.257812 57.703125 -56.175781 57.703125 -53.75 C 57.703125 -51.539062 57.015625 -49.722656 55.640625 -48.296875 C 54.273438 -46.867188 52.488281 -46.15625 50.28125 -46.15625 C 48.695312 -46.15625 47.40625 -46.472656 46.40625 -47.109375 C 45.40625 -47.742188 44.375 -48.691406 43.3125 -49.953125 C 42.363281 -51.003906 41.546875 -51.769531 40.859375 -52.25 C 40.179688 -52.726562 39.367188 -52.96875 38.421875 -52.96875 C 37.359375 -52.96875 36.222656 -52.570312 35.015625 -51.78125 C 33.804688 -50.988281 31.9375 -49.328125 29.40625 -46.796875 L 29.40625 -12.8125 C 29.40625 -8.59375 30.40625 -5.71875 32.40625 -4.1875 C 34.40625 -2.65625 38.09375 -1.890625 43.46875 -1.890625 C 43.894531 -1.890625 44.109375 -1.570312 44.109375 -0.9375 C 44.109375 -0.3125 43.894531 0 43.46875 0 C 39.78125 0 36.882812 -0.0507812 34.78125 -0.15625 L 21.96875 -0.3125 L 12.640625 -0.15625 C 11.066406 -0.0507812 8.910156 0 6.171875 0 C 5.847656 0 5.6875 -0.3125 5.6875 -0.9375 C 5.6875 -1.570312 5.847656 -1.890625 6.171875 -1.890625 C 9.429688 -1.890625 11.640625 -2.65625 12.796875 -4.1875 C 13.960938 -5.71875 14.546875 -8.59375 14.546875 -12.8125 L 14.546875 -42.53125 C 14.546875 -45.789062 14.148438 -48.1875 13.359375 -49.71875 C 12.566406 -51.25 11.328125 -52.015625 9.640625 -52.015625 C 7.847656 -52.015625 5.320312 -51.273438 2.0625 -49.796875 L 1.734375 -49.796875 C 1.421875 -49.796875 1.1875 -50.054688 1.03125 -50.578125 C 0.875 -51.109375 0.898438 -51.425781 1.109375 -51.53125 L 23.078125 -62.28125 C 23.710938 -62.5 24.082031 -62.609375 24.1875 -62.609375 C 25.34375 -62.609375 26.421875 -61.523438 27.421875 -59.359375 C 28.429688 -57.203125 29.039062 -54.28125 29.25 -50.59375 C 33.570312 -55.019531 37.128906 -58.128906 39.921875 -59.921875 C 42.710938 -61.710938 45.160156 -62.609375 47.265625 -62.609375 Z M 47.265625 -62.609375 "/></g></g></g><g fill="#000000" fill-opacity="1"><g transform="translate(654.866274, 360.060562)"><g><path d="M 69.71875 -61.03125 C 69.925781 -61.03125 70.03125 -60.710938 70.03125 -60.078125 C 70.03125 -59.441406 69.925781 -59.125 69.71875 -59.125 C 66.34375 -59.125 63.414062 -57.675781 60.9375 -54.78125 C 58.46875 -51.882812 56.226562 -47.695312 54.21875 -42.21875 L 36.671875 4.421875 C 31.085938 19.179688 25.738281 29.535156 20.625 35.484375 C 15.519531 41.441406 9.859375 44.421875 3.640625 44.421875 C 0.472656 44.421875 -1.953125 43.757812 -3.640625 42.4375 C -5.328125 41.125 -6.171875 39.203125 -6.171875 36.671875 C -6.171875 34.253906 -5.429688 32.410156 -3.953125 31.140625 C -2.472656 29.878906 -0.679688 29.25 1.421875 29.25 C 2.578125 29.25 3.550781 29.40625 4.34375 29.71875 C 5.132812 30.039062 6.109375 30.566406 7.265625 31.296875 C 9.273438 32.671875 11.175781 33.359375 12.96875 33.359375 C 15.382812 33.359375 17.566406 32.4375 19.515625 30.59375 C 21.472656 28.75 23.503906 25.691406 25.609375 21.421875 C 27.710938 17.148438 30.242188 11.0625 33.203125 3.15625 L 7.90625 -47.90625 C 5.582031 -52.4375 3.757812 -55.4375 2.4375 -56.90625 C 1.125 -58.382812 -0.476562 -59.125 -2.375 -59.125 C -2.6875 -59.125 -2.84375 -59.441406 -2.84375 -60.078125 C -2.84375 -60.710938 -2.6875 -61.03125 -2.375 -61.03125 C 0.582031 -61.03125 2.847656 -60.972656 4.421875 -60.859375 L 11.0625 -60.703125 L 21.96875 -60.859375 C 23.65625 -60.972656 25.921875 -61.03125 28.765625 -61.03125 C 29.085938 -61.03125 29.25 -60.710938 29.25 -60.078125 C 29.25 -59.441406 29.085938 -59.125 28.765625 -59.125 C 26.023438 -59.125 24.023438 -58.882812 22.765625 -58.40625 C 21.503906 -57.9375 20.875 -57.175781 20.875 -56.125 C 20.875 -55.28125 21.1875 -54.226562 21.8125 -52.96875 L 40.46875 -14.859375 L 49.953125 -42.375 C 50.898438 -45.113281 51.375 -47.585938 51.375 -49.796875 C 51.375 -52.742188 50.53125 -55.035156 48.84375 -56.671875 C 47.164062 -58.304688 44.742188 -59.125 41.578125 -59.125 C 41.367188 -59.125 41.265625 -59.441406 41.265625 -60.078125 C 41.265625 -60.710938 41.367188 -61.03125 41.578125 -61.03125 C 44.421875 -61.03125 46.582031 -60.972656 48.0625 -60.859375 L 57.546875 -60.703125 L 63.875 -60.859375 C 65.132812 -60.972656 67.082031 -61.03125 69.71875 -61.03125 Z M 69.71875 -61.03125 "/></g></g></g><g fill="#000000" fill-opacity="1"><g transform="translate(722.374944, 360.060562)"><g/></g></g></svg>