<svg xmlns="http://www.w3.org/2000/svg" xmlns:xlink="http://www.w3.org/1999/xlink" width="1366" zoomAndPan="magnify" viewBox="0 0 1024.5 703.499984" height="938" preserveAspectRatio="xMidYMid meet" version="1.0"><defs><g/></defs><g fill="#000000" fill-opacity="1"><g transform="translate(0.114003, 213.486786)"><g><path d="M 169.875 -51.65625 C 170.21875 -50.84375 170.210938 -50 169.859375 -49.125 C 169.515625 -48.25 168.9375 -47.632812 168.125 -47.28125 C 161.226562 -44.476562 154.65625 -41.617188 148.40625 -38.703125 C 142.164062 -35.785156 136.1875 -32.925781 130.46875 -30.125 C 121.707031 7.582031 110.847656 39.046875 97.890625 64.265625 C 88.429688 82.828125 78.273438 97.363281 67.421875 107.875 C 56.566406 118.382812 46 123.929688 35.71875 124.515625 C 35.132812 124.628906 34.550781 124.6875 33.96875 124.6875 C 27.90625 124.6875 22.738281 122.847656 18.46875 119.171875 C 14.207031 115.492188 11.320312 110.382812 9.8125 103.84375 C 8.40625 97.78125 8.460938 90.71875 9.984375 82.65625 C 11.503906 74.601562 14.769531 65.847656 19.78125 56.390625 C 24.800781 46.929688 31.863281 37.09375 40.96875 26.875 C 50.082031 16.664062 61.554688 6.335938 75.390625 -4.109375 C 89.222656 -14.566406 105.65625 -24.753906 124.6875 -34.671875 C 131.8125 -65.960938 137.300781 -100.640625 141.15625 -138.703125 C 141.5 -142.085938 141.726562 -145.003906 141.84375 -147.453125 C 140.914062 -145.472656 139.925781 -143.253906 138.875 -140.796875 C 137.820312 -138.347656 136.769531 -135.894531 135.71875 -133.4375 C 132.800781 -126.789062 129.441406 -119.234375 125.640625 -110.765625 C 121.847656 -102.296875 117.617188 -93.65625 112.953125 -84.84375 C 108.285156 -76.03125 103.234375 -67.625 97.796875 -59.625 C 92.367188 -51.632812 86.625 -44.773438 80.5625 -39.046875 C 65.382812 -24.804688 53.300781 -19.144531 44.3125 -22.0625 C 42.207031 -22.644531 39.988281 -24.101562 37.65625 -26.4375 C 35.320312 -28.78125 33.566406 -32.691406 32.390625 -38.171875 C 31.460938 -43.191406 31.289062 -49.03125 31.875 -55.6875 C 32.457031 -62.34375 33.738281 -69.316406 35.71875 -76.609375 C 37.707031 -83.910156 40.335938 -91.148438 43.609375 -98.328125 C 46.878906 -105.515625 50.726562 -112.257812 55.15625 -118.5625 C 59.59375 -124.863281 64.5 -130.289062 69.875 -134.84375 C 70.570312 -135.425781 71.390625 -135.6875 72.328125 -135.625 C 73.265625 -135.570312 74.023438 -135.195312 74.609375 -134.5 C 75.191406 -133.789062 75.453125 -132.96875 75.390625 -132.03125 C 75.328125 -131.101562 74.945312 -130.347656 74.25 -129.765625 C 69.34375 -125.566406 64.847656 -120.546875 60.765625 -114.703125 C 56.679688 -108.867188 53.09375 -102.566406 50 -95.796875 C 46.90625 -89.023438 44.363281 -82.222656 42.375 -75.390625 C 40.394531 -68.554688 39.113281 -62.015625 38.53125 -55.765625 C 37.945312 -49.523438 38.117188 -44.070312 39.046875 -39.40625 C 39.515625 -37.300781 40.273438 -35.109375 41.328125 -32.828125 C 42.378906 -30.554688 44.070312 -29.070312 46.40625 -28.375 C 47.570312 -28.019531 49.378906 -28.015625 51.828125 -28.359375 C 54.285156 -28.710938 57.46875 -30.054688 61.375 -32.390625 C 65.289062 -34.734375 70.109375 -38.585938 75.828125 -43.953125 C 81.660156 -49.441406 87.203125 -56.066406 92.453125 -63.828125 C 97.710938 -71.597656 102.617188 -79.800781 107.171875 -88.4375 C 111.722656 -97.070312 115.894531 -105.535156 119.6875 -113.828125 C 123.488281 -122.117188 126.789062 -129.535156 129.59375 -136.078125 C 132.625 -143.078125 135.015625 -148.414062 136.765625 -152.09375 C 138.523438 -155.769531 140.015625 -158.25 141.234375 -159.53125 C 142.460938 -160.820312 143.835938 -161.234375 145.359375 -160.765625 C 146.640625 -160.410156 147.570312 -159.59375 148.15625 -158.3125 C 148.738281 -157.03125 148.972656 -154.8125 148.859375 -151.65625 C 148.742188 -148.507812 148.394531 -143.957031 147.8125 -138 C 144.1875 -101.925781 139.046875 -68.769531 132.390625 -38.53125 C 137.523438 -41.09375 142.863281 -43.628906 148.40625 -46.140625 C 153.957031 -48.648438 159.65625 -51.070312 165.5 -53.40625 C 166.3125 -53.757812 167.15625 -53.757812 168.03125 -53.40625 C 168.90625 -53.0625 169.519531 -52.476562 169.875 -51.65625 Z M 91.9375 61.125 C 103.96875 37.65625 114.1875 8.640625 122.59375 -25.921875 C 101.6875 -14.597656 84.78125 -3.535156 71.875 7.265625 C 58.976562 18.066406 49.03125 27.671875 42.03125 36.078125 C 31.988281 47.984375 24.691406 59.800781 20.140625 71.53125 C 15.585938 83.269531 14.363281 93.578125 16.46875 102.453125 C 17.632812 107.585938 19.847656 111.523438 23.109375 114.265625 C 26.378906 117.015625 30.410156 118.210938 35.203125 117.859375 C 41.273438 117.503906 47.550781 114.992188 54.03125 110.328125 C 60.507812 105.660156 66.988281 99.179688 73.46875 90.890625 C 79.945312 82.597656 86.101562 72.675781 91.9375 61.125 Z M 91.9375 61.125 "/></g></g></g><g fill="#000000" fill-opacity="1"><g transform="translate(166.125533, 213.486786)"><g><path d="M 73.375 -38.875 C 74.195312 -38.53125 74.753906 -37.914062 75.046875 -37.03125 C 75.335938 -36.15625 75.304688 -35.3125 74.953125 -34.5 C 72.734375 -29.945312 70.3125 -25.394531 67.6875 -20.84375 C 65.0625 -16.289062 62.316406 -12.113281 59.453125 -8.3125 C 56.597656 -4.519531 53.648438 -1.488281 50.609375 0.78125 C 47.578125 3.0625 44.539062 4.203125 41.5 4.203125 C 40.914062 4.203125 40.273438 4.144531 39.578125 4.03125 C 31.753906 2.507812 26.910156 -8 25.046875 -27.5 C 23.054688 -24.8125 20.75 -21.800781 18.125 -18.46875 C 15.5 -15.144531 12.726562 -11.847656 9.8125 -8.578125 C 9.34375 -8.109375 8.582031 -7.378906 7.53125 -6.390625 C 6.476562 -5.398438 5.25 -4.613281 3.84375 -4.03125 C 2.445312 -3.445312 1.050781 -3.503906 -0.34375 -4.203125 C -3.144531 -5.253906 -4.488281 -8.289062 -4.375 -13.3125 C -4.375 -16.226562 -3.816406 -19.84375 -2.703125 -24.15625 C -1.597656 -28.476562 -0.0234375 -32.828125 2.015625 -37.203125 C 4.054688 -41.585938 6.445312 -45.472656 9.1875 -48.859375 C 11.9375 -52.242188 15.003906 -54.519531 18.390625 -55.6875 C 20.492188 -56.507812 23.0625 -56.65625 26.09375 -56.125 C 29.125 -55.601562 32.273438 -53.414062 35.546875 -49.5625 C 36.128906 -48.863281 36.390625 -48.046875 36.328125 -47.109375 C 36.273438 -46.171875 35.898438 -45.410156 35.203125 -44.828125 C 34.503906 -44.242188 33.6875 -43.976562 32.75 -44.03125 C 31.8125 -44.09375 31.050781 -44.476562 30.46875 -45.1875 C 27.664062 -48.445312 25.242188 -49.988281 23.203125 -49.8125 C 21.160156 -49.644531 19.4375 -49.035156 18.03125 -47.984375 C 15.46875 -46.117188 13.132812 -43.429688 11.03125 -39.921875 C 8.925781 -36.421875 7.171875 -32.742188 5.765625 -28.890625 C 4.367188 -25.035156 3.378906 -21.445312 2.796875 -18.125 C 2.210938 -14.800781 2.039062 -12.378906 2.28125 -10.859375 C 2.625 -11.085938 3 -11.378906 3.40625 -11.734375 C 3.820312 -12.085938 4.265625 -12.554688 4.734375 -13.140625 C 8.234375 -16.984375 11.441406 -20.800781 14.359375 -24.59375 C 17.273438 -28.394531 19.785156 -31.753906 21.890625 -34.671875 C 22.472656 -35.492188 23.023438 -36.28125 23.546875 -37.03125 C 24.078125 -37.789062 24.578125 -38.460938 25.046875 -39.046875 C 25.972656 -40.210938 27.195312 -40.566406 28.71875 -40.109375 C 30.238281 -39.753906 31.054688 -38.757812 31.171875 -37.125 C 31.523438 -29.539062 32.140625 -23.441406 33.015625 -18.828125 C 33.890625 -14.210938 34.851562 -10.765625 35.90625 -8.484375 C 36.957031 -6.210938 37.945312 -4.664062 38.875 -3.84375 C 39.8125 -3.03125 40.515625 -2.625 40.984375 -2.625 C 43.203125 -2.15625 46.757812 -4.429688 51.65625 -9.453125 C 56.5625 -14.472656 62.285156 -23.753906 68.828125 -37.296875 C 69.296875 -38.234375 69.96875 -38.847656 70.84375 -39.140625 C 71.71875 -39.429688 72.5625 -39.34375 73.375 -38.875 Z M 73.375 -38.875 "/></g></g></g><g fill="#000000" fill-opacity="1"><g transform="translate(231.269307, 213.486786)"><g><path d="M 98.765625 -39.234375 C 99.472656 -38.648438 99.851562 -37.890625 99.90625 -36.953125 C 99.96875 -36.015625 99.707031 -35.195312 99.125 -34.5 C 84.289062 -17.101562 72.554688 -10.039062 63.921875 -13.3125 C 57.734375 -15.644531 54.40625 -23.054688 53.9375 -35.546875 C 52.65625 -33.210938 51.285156 -30.554688 49.828125 -27.578125 C 48.367188 -24.597656 47.171875 -22.175781 46.234375 -20.3125 C 45.535156 -18.5625 44.832031 -16.984375 44.125 -15.578125 C 43.425781 -14.179688 42.785156 -13.015625 42.203125 -12.078125 C 41.859375 -11.378906 41.242188 -10.359375 40.359375 -9.015625 C 39.484375 -7.671875 38.375 -6.503906 37.03125 -5.515625 C 35.695312 -4.523438 34.148438 -4.265625 32.390625 -4.734375 C 30.296875 -5.316406 28.722656 -6.863281 27.671875 -9.375 C 26.617188 -11.882812 25.972656 -14.625 25.734375 -17.59375 C 25.503906 -20.570312 25.390625 -23 25.390625 -24.875 C 25.390625 -26.382812 25.390625 -27.835938 25.390625 -29.234375 C 25.390625 -30.640625 25.445312 -31.925781 25.5625 -33.09375 C 21.476562 -27.257812 17.566406 -21.21875 13.828125 -14.96875 C 10.097656 -8.726562 6.128906 -1.578125 1.921875 6.484375 C 0.523438 9.160156 -0.988281 10.5 -2.625 10.5 C -3.207031 10.5 -3.734375 10.328125 -4.203125 9.984375 C -4.785156 9.742188 -5.3125 9.363281 -5.78125 8.84375 C -6.25 8.320312 -6.507812 7.269531 -6.5625 5.6875 C -6.625 4.113281 -6.390625 1.691406 -5.859375 -1.578125 C -5.335938 -4.847656 -4.316406 -9.398438 -2.796875 -15.234375 C -1.046875 -22.359375 1.019531 -29.421875 3.40625 -36.421875 C 5.800781 -43.429688 8.226562 -49.738281 10.6875 -55.34375 C 11.03125 -56.269531 11.640625 -56.910156 12.515625 -57.265625 C 13.390625 -57.617188 14.238281 -57.5625 15.0625 -57.09375 C 16 -56.738281 16.613281 -56.125 16.90625 -55.25 C 17.195312 -54.375 17.164062 -53.53125 16.8125 -52.71875 C 13.65625 -45.363281 10.820312 -37.6875 8.3125 -29.6875 C 5.800781 -21.6875 3.847656 -14.707031 2.453125 -8.75 C 6.066406 -15.175781 9.625 -21.160156 13.125 -26.703125 C 16.632812 -32.253906 20.316406 -37.65625 24.171875 -42.90625 C 24.515625 -43.375 25.125 -44.015625 26 -44.828125 C 26.875 -45.648438 28.070312 -45.828125 29.59375 -45.359375 C 31.113281 -44.773438 31.957031 -43.664062 32.125 -42.03125 C 32.300781 -40.394531 32.332031 -37.648438 32.21875 -33.796875 C 32.21875 -32.515625 32.1875 -31.113281 32.125 -29.59375 C 32.070312 -28.070312 32.046875 -26.5 32.046875 -24.875 C 32.046875 -21.363281 32.28125 -18.5 32.75 -16.28125 C 33.21875 -14.0625 33.625 -12.546875 33.96875 -11.734375 C 34.207031 -11.960938 34.53125 -12.367188 34.9375 -12.953125 C 35.34375 -13.535156 35.835938 -14.296875 36.421875 -15.234375 C 36.890625 -16.054688 37.441406 -17.164062 38.078125 -18.5625 C 38.722656 -19.96875 39.457031 -21.484375 40.28125 -23.109375 C 43.3125 -29.648438 45.789062 -34.671875 47.71875 -38.171875 C 49.644531 -41.679688 51.304688 -44.078125 52.703125 -45.359375 C 54.109375 -46.640625 55.570312 -47.109375 57.09375 -46.765625 C 58.957031 -46.296875 60.035156 -45.15625 60.328125 -43.34375 C 60.617188 -41.53125 60.765625 -40.097656 60.765625 -39.046875 C 60.648438 -33.566406 61.085938 -29.132812 62.078125 -25.75 C 63.078125 -22.363281 64.507812 -20.316406 66.375 -19.609375 C 68.476562 -18.796875 71.832031 -19.726562 76.4375 -22.40625 C 81.050781 -25.09375 86.921875 -30.582031 94.046875 -38.875 C 94.628906 -39.570312 95.382812 -39.953125 96.3125 -40.015625 C 97.25 -40.078125 98.066406 -39.816406 98.765625 -39.234375 Z M 98.765625 -39.234375 "/></g></g></g><g fill="#000000" fill-opacity="1"><g transform="translate(322.505604, 213.486786)"><g><path d="M 59.1875 -39.046875 C 60.007812 -38.585938 60.476562 -37.890625 60.59375 -36.953125 C 60.707031 -36.015625 60.53125 -35.195312 60.0625 -34.5 C 53.175781 -24.925781 46.875 -17.015625 41.15625 -10.765625 C 35.4375 -4.523438 29.710938 0.640625 23.984375 4.734375 C 19.671875 7.765625 15.410156 9.28125 11.203125 9.28125 C 7.929688 9.28125 5.070312 8.40625 2.625 6.65625 C 0.988281 5.488281 -0.613281 3.414062 -2.1875 0.4375 C -3.757812 -2.539062 -4.601562 -6.859375 -4.71875 -12.515625 C -4.84375 -18.179688 -3.445312 -25.625 -0.53125 -34.84375 C -0.53125 -34.84375 -0.53125 -34.90625 -0.53125 -35.03125 C 2.976562 -46.238281 7.09375 -54.789062 11.8125 -60.6875 C 16.539062 -66.582031 20.597656 -69.585938 23.984375 -69.703125 C 26.671875 -69.816406 28.425781 -68.648438 29.25 -66.203125 C 30.53125 -62.816406 29.007812 -58 24.6875 -51.75 C 20.375 -45.5 14.015625 -38.875 5.609375 -31.875 C 3.035156 -23.695312 1.804688 -17.300781 1.921875 -12.6875 C 2.035156 -8.082031 2.675781 -4.757812 3.84375 -2.71875 C 5.019531 -0.675781 5.957031 0.632812 6.65625 1.21875 C 10.15625 3.789062 14.648438 3.09375 20.140625 -0.875 C 25.503906 -4.613281 30.929688 -9.488281 36.421875 -15.5 C 41.910156 -21.507812 47.925781 -29.128906 54.46875 -38.359375 C 55.050781 -39.054688 55.804688 -39.488281 56.734375 -39.65625 C 57.671875 -39.832031 58.488281 -39.628906 59.1875 -39.046875 Z M 22.765625 -62.34375 C 21.484375 -61.53125 19.734375 -59.804688 17.515625 -57.171875 C 15.296875 -54.546875 13.019531 -50.722656 10.6875 -45.703125 C 14.882812 -49.796875 17.859375 -53.269531 19.609375 -56.125 C 21.359375 -58.988281 22.410156 -61.0625 22.765625 -62.34375 Z M 22.765625 -62.34375 "/></g></g></g><g fill="#000000" fill-opacity="1"><g transform="translate(373.464851, 213.486786)"><g><path d="M 51.484375 -164.09375 C 53.003906 -161.875 53.035156 -157.378906 51.578125 -150.609375 C 50.117188 -143.835938 47.109375 -135.457031 42.546875 -125.46875 C 37.992188 -115.488281 31.925781 -104.429688 24.34375 -92.296875 C 24.226562 -92.171875 24.109375 -92.050781 23.984375 -91.9375 C 20.953125 -79.5625 17.945312 -66.953125 14.96875 -54.109375 C 11.988281 -41.265625 9.15625 -28.65625 6.46875 -16.28125 C 3.789062 -3.90625 1.34375 7.738281 -0.875 18.65625 C -3.09375 29.570312 -4.988281 39.289062 -6.5625 47.8125 C -8.144531 56.332031 -9.285156 63.160156 -9.984375 68.296875 C -9.867188 68.296875 -9.75 68.296875 -9.625 68.296875 C -8.695312 68.648438 -8.023438 69.234375 -7.609375 70.046875 C -7.203125 70.867188 -7.175781 71.742188 -7.53125 72.671875 C -8.34375 74.890625 -9.1875 76.90625 -10.0625 78.71875 C -10.945312 80.53125 -12.144531 81.4375 -13.65625 81.4375 C -14.007812 81.4375 -14.421875 81.378906 -14.890625 81.265625 C -15.941406 80.910156 -16.695312 80.175781 -17.15625 79.0625 C -17.625 77.957031 -17.679688 75.738281 -17.328125 72.40625 C -16.984375 69.082031 -16.226562 63.976562 -15.0625 57.09375 C -12.957031 44.476562 -9.804688 28.015625 -5.609375 7.703125 C -2.566406 -6.535156 0.613281 -21.039062 3.9375 -35.8125 C 7.269531 -50.582031 10.566406 -64.828125 13.828125 -78.546875 C 17.097656 -92.265625 20.253906 -104.726562 23.296875 -115.9375 C 23.878906 -118.15625 24.753906 -121.25 25.921875 -125.21875 C 27.085938 -129.1875 28.425781 -133.445312 29.9375 -138 C 31.457031 -142.550781 33.148438 -146.925781 35.015625 -151.125 C 36.890625 -155.332031 38.816406 -158.804688 40.796875 -161.546875 C 42.785156 -164.296875 44.773438 -165.84375 46.765625 -166.1875 C 48.742188 -166.539062 50.316406 -165.84375 51.484375 -164.09375 Z M 30.125 -115.40625 C 35.726562 -125.914062 39.664062 -134.671875 41.9375 -141.671875 C 44.21875 -148.679688 45.53125 -153.757812 45.875 -156.90625 C 44.25 -154.570312 42.035156 -150.164062 39.234375 -143.6875 C 36.429688 -137.207031 33.394531 -127.78125 30.125 -115.40625 Z M 30.125 -115.40625 "/></g></g></g><g fill="#000000" fill-opacity="1"><g transform="translate(400.082741, 213.486786)"><g><path d="M 51.3125 -39.921875 C 52.125 -39.460938 52.617188 -38.765625 52.796875 -37.828125 C 52.972656 -36.890625 52.828125 -36.015625 52.359375 -35.203125 C 50.140625 -31.703125 47.335938 -27.789062 43.953125 -23.46875 C 40.566406 -19.144531 36.890625 -15.023438 32.921875 -11.109375 C 28.953125 -7.203125 25.007812 -3.960938 21.09375 -1.390625 C 17.1875 1.171875 13.597656 2.453125 10.328125 2.453125 C 8.929688 2.453125 7.707031 2.21875 6.65625 1.75 C 2.6875 0 0.492188 -4.226562 0.078125 -10.9375 C -0.328125 -17.65625 1.046875 -27.144531 4.203125 -39.40625 C 4.429688 -40.332031 4.953125 -41.03125 5.765625 -41.5 C 6.585938 -41.96875 7.410156 -42.085938 8.234375 -41.859375 C 9.160156 -41.617188 9.859375 -41.085938 10.328125 -40.265625 C 10.796875 -39.453125 10.914062 -38.640625 10.6875 -37.828125 C 8.8125 -30.359375 7.640625 -24.429688 7.171875 -20.046875 C 6.710938 -15.671875 6.628906 -12.375 6.921875 -10.15625 C 7.210938 -7.9375 7.648438 -6.445312 8.234375 -5.6875 C 8.816406 -4.925781 9.164062 -4.546875 9.28125 -4.546875 C 10.800781 -3.847656 13.019531 -4.34375 15.9375 -6.03125 C 18.851562 -7.726562 22.117188 -10.238281 25.734375 -13.5625 C 29.359375 -16.894531 33.007812 -20.75 36.6875 -25.125 C 40.363281 -29.507812 43.660156 -34.09375 46.578125 -38.875 C 47.160156 -39.695312 47.890625 -40.191406 48.765625 -40.359375 C 49.640625 -40.535156 50.488281 -40.390625 51.3125 -39.921875 Z M 9.984375 -53.9375 C 7.648438 -54.050781 6.453125 -54.722656 6.390625 -55.953125 C 6.328125 -57.179688 6.847656 -58.4375 7.953125 -59.71875 C 9.066406 -61 10.210938 -61.875 11.390625 -62.34375 C 13.253906 -62.925781 14.625 -62.804688 15.5 -61.984375 C 16.375 -61.171875 16.78125 -60.125 16.71875 -58.84375 C 16.664062 -57.5625 16.082031 -56.394531 14.96875 -55.34375 C 13.863281 -54.289062 12.203125 -53.820312 9.984375 -53.9375 Z M 9.984375 -53.9375 "/></g></g></g><g fill="#000000" fill-opacity="1"><g transform="translate(444.387492, 213.486786)"><g><path d="M 70.578125 -39.046875 C 71.390625 -38.585938 71.910156 -37.914062 72.140625 -37.03125 C 72.378906 -36.15625 72.265625 -35.3125 71.796875 -34.5 C 66.316406 -24.8125 61.382812 -17.367188 57 -12.171875 C 52.625 -6.972656 48.160156 -4.664062 43.609375 -5.25 C 37.765625 -5.945312 33.148438 -12.253906 29.765625 -24.171875 C 28.597656 -28.023438 27.578125 -30.796875 26.703125 -32.484375 C 25.828125 -34.179688 25.125 -35.234375 24.59375 -35.640625 C 24.070312 -36.046875 23.695312 -36.25 23.46875 -36.25 C 23.113281 -36.363281 22.410156 -36.007812 21.359375 -35.1875 C 20.316406 -34.375 18.800781 -32.566406 16.8125 -29.765625 C 14.820312 -26.960938 12.367188 -22.613281 9.453125 -16.71875 C 6.535156 -10.820312 2.976562 -2.738281 -1.21875 7.53125 C -1.800781 8.925781 -2.796875 9.625 -4.203125 9.625 C -4.554688 9.625 -4.847656 9.566406 -5.078125 9.453125 C -7.066406 8.984375 -7.941406 7.757812 -7.703125 5.78125 C -7.117188 0.988281 -6.066406 -4.554688 -4.546875 -10.859375 C -3.035156 -17.160156 -1.375 -23.578125 0.4375 -30.109375 C 2.25 -36.648438 3.910156 -42.492188 5.421875 -47.640625 C 5.773438 -48.804688 6.097656 -49.882812 6.390625 -50.875 C 6.679688 -51.863281 6.945312 -52.828125 7.1875 -53.765625 C 7.53125 -54.703125 8.109375 -55.375 8.921875 -55.78125 C 9.742188 -56.1875 10.566406 -56.273438 11.390625 -56.046875 C 12.316406 -55.804688 13.015625 -55.273438 13.484375 -54.453125 C 13.953125 -53.640625 14.007812 -52.769531 13.65625 -51.84375 C 13.425781 -50.90625 13.164062 -49.9375 12.875 -48.9375 C 12.582031 -47.945312 12.257812 -46.867188 11.90625 -45.703125 C 11.09375 -42.671875 10.160156 -39.34375 9.109375 -35.71875 C 8.054688 -32.101562 7.003906 -28.425781 5.953125 -24.6875 C 9.921875 -32.164062 13.304688 -37.128906 16.109375 -39.578125 C 18.910156 -42.023438 21.476562 -43.191406 23.8125 -43.078125 C 27.082031 -42.847656 29.648438 -41.039062 31.515625 -37.65625 C 33.390625 -34.269531 34.96875 -30.359375 36.25 -25.921875 C 38 -19.847656 39.632812 -15.992188 41.15625 -14.359375 C 42.675781 -12.722656 43.785156 -11.90625 44.484375 -11.90625 C 46.003906 -11.675781 47.785156 -12.523438 49.828125 -14.453125 C 51.867188 -16.378906 53.910156 -18.828125 55.953125 -21.796875 C 57.992188 -24.773438 59.921875 -27.722656 61.734375 -30.640625 C 63.546875 -33.566406 64.914062 -35.960938 65.84375 -37.828125 C 66.3125 -38.640625 67.007812 -39.160156 67.9375 -39.390625 C 68.875 -39.628906 69.753906 -39.515625 70.578125 -39.046875 Z M 70.578125 -39.046875 "/></g></g></g><g fill="#000000" fill-opacity="1"><g transform="translate(506.904472, 213.486786)"><g/></g></g><g fill="#000000" fill-opacity="1"><g transform="translate(560.665575, 213.486786)"><g><path d="M 159.015625 -170.21875 C 161.816406 -168.351562 164.472656 -165.753906 166.984375 -162.421875 C 169.492188 -159.097656 171.390625 -154.925781 172.671875 -149.90625 C 173.953125 -144.882812 174.269531 -138.785156 173.625 -131.609375 C 172.988281 -124.429688 170.976562 -115.992188 167.59375 -106.296875 C 162.34375 -91.703125 156.097656 -78.453125 148.859375 -66.546875 C 141.617188 -54.640625 133.617188 -44.539062 124.859375 -36.25 C 117.742188 -29.476562 110.421875 -24.222656 102.890625 -20.484375 C 95.359375 -16.753906 88.207031 -14.890625 81.4375 -14.890625 C 80.726562 -14.890625 80.023438 -14.945312 79.328125 -15.0625 C 68.703125 -15.757812 61.171875 -20.78125 56.734375 -30.125 C 53.929688 -18.09375 51.160156 -6.269531 48.421875 5.34375 C 45.679688 16.957031 43.140625 27.957031 40.796875 38.34375 C 38.460938 48.738281 36.476562 58.050781 34.84375 66.28125 C 33.207031 74.507812 32.039062 81.195312 31.34375 86.34375 C 31.582031 85.875 31.816406 85.347656 32.046875 84.765625 C 32.398438 83.941406 33.015625 83.351562 33.890625 83 C 34.765625 82.65625 35.609375 82.660156 36.421875 83.015625 C 37.242188 83.472656 37.828125 84.140625 38.171875 85.015625 C 38.523438 85.898438 38.523438 86.75 38.171875 87.5625 C 36.078125 92.113281 34.328125 95.46875 32.921875 97.625 C 31.523438 99.789062 30.007812 100.875 28.375 100.875 C 27.90625 100.875 27.4375 100.753906 26.96875 100.515625 C 25.800781 100.171875 24.953125 99.351562 24.421875 98.0625 C 23.898438 96.78125 23.753906 94.59375 23.984375 91.5 C 24.222656 88.40625 24.867188 83.941406 25.921875 78.109375 C 27.671875 67.484375 30.765625 52.242188 35.203125 32.390625 C 38.003906 20.140625 41.066406 7.007812 44.390625 -7 C 47.722656 -21.007812 51.140625 -35.28125 54.640625 -49.8125 C 58.140625 -64.351562 61.582031 -78.515625 64.96875 -92.296875 C 68.238281 -105.597656 71.273438 -118.054688 74.078125 -129.671875 C 76.878906 -141.296875 79.332031 -151.484375 81.4375 -160.234375 C 73.84375 -156.960938 66.484375 -153.164062 59.359375 -148.84375 C 52.242188 -144.53125 45.882812 -139.921875 40.28125 -135.015625 C 32.570312 -128.242188 26.878906 -121.910156 23.203125 -116.015625 C 19.523438 -110.117188 17.21875 -104.628906 16.28125 -99.546875 C 15.351562 -94.472656 15.265625 -89.976562 16.015625 -86.0625 C 16.773438 -82.15625 17.800781 -78.921875 19.09375 -76.359375 C 19.5625 -75.535156 19.644531 -74.6875 19.34375 -73.8125 C 19.050781 -72.9375 18.5 -72.265625 17.6875 -71.796875 C 16.875 -71.453125 16.023438 -71.425781 15.140625 -71.71875 C 14.265625 -72.007812 13.597656 -72.5625 13.140625 -73.375 C 7.992188 -83.644531 7.375 -94.617188 11.28125 -106.296875 C 15.195312 -117.972656 23.34375 -129.238281 35.71875 -140.09375 C 42.375 -145.820312 49.757812 -151.109375 57.875 -155.953125 C 65.988281 -160.796875 74.484375 -164.910156 83.359375 -168.296875 C 83.828125 -170.628906 84.296875 -172.726562 84.765625 -174.59375 C 84.878906 -175.414062 85.34375 -176.085938 86.15625 -176.609375 C 86.976562 -177.140625 87.851562 -177.285156 88.78125 -177.046875 C 89.601562 -176.929688 90.273438 -176.460938 90.796875 -175.640625 C 91.328125 -174.828125 91.472656 -173.953125 91.234375 -173.015625 C 91.234375 -172.671875 91.175781 -172.320312 91.0625 -171.96875 C 90.945312 -171.625 90.890625 -171.332031 90.890625 -171.09375 C 93.804688 -172.03125 96.722656 -172.90625 99.640625 -173.71875 C 112.140625 -177.101562 123.492188 -178.503906 133.703125 -177.921875 C 143.921875 -177.335938 152.359375 -174.769531 159.015625 -170.21875 Z M 161.109375 -108.578125 C 162.859375 -113.359375 164.316406 -118.40625 165.484375 -123.71875 C 166.660156 -129.03125 167.25 -134.253906 167.25 -139.390625 C 167.25 -144.535156 166.3125 -149.296875 164.4375 -153.671875 C 162.570312 -158.046875 159.476562 -161.753906 155.15625 -164.796875 C 149.4375 -168.648438 141.878906 -170.78125 132.484375 -171.1875 C 123.085938 -171.59375 112.722656 -170.28125 101.390625 -167.25 C 97.304688 -166.082031 93.164062 -164.738281 88.96875 -163.21875 C 86.976562 -154.226562 84.460938 -143.515625 81.421875 -131.078125 C 78.390625 -118.648438 75.125 -105.195312 71.625 -90.71875 C 69.644531 -83.007812 67.628906 -74.976562 65.578125 -66.625 C 63.535156 -58.28125 61.46875 -49.734375 59.375 -40.984375 C 60.1875 -40.515625 60.707031 -39.8125 60.9375 -38.875 C 63.28125 -28.132812 69.53125 -22.414062 79.6875 -21.71875 C 85.632812 -21.363281 92.171875 -22.878906 99.296875 -26.265625 C 106.421875 -29.648438 113.425781 -34.613281 120.3125 -41.15625 C 124.164062 -44.769531 128.457031 -49.582031 133.1875 -55.59375 C 137.914062 -61.613281 142.703125 -68.972656 147.546875 -77.671875 C 152.390625 -86.367188 156.910156 -96.671875 161.109375 -108.578125 Z M 161.109375 -108.578125 "/></g></g></g><g fill="#000000" fill-opacity="1"><g transform="translate(715.11933, 213.486786)"><g><path d="M 59.1875 -39.046875 C 60.007812 -38.585938 60.476562 -37.890625 60.59375 -36.953125 C 60.707031 -36.015625 60.53125 -35.195312 60.0625 -34.5 C 53.175781 -24.925781 46.875 -17.015625 41.15625 -10.765625 C 35.4375 -4.523438 29.710938 0.640625 23.984375 4.734375 C 19.671875 7.765625 15.410156 9.28125 11.203125 9.28125 C 7.929688 9.28125 5.070312 8.40625 2.625 6.65625 C 0.988281 5.488281 -0.613281 3.414062 -2.1875 0.4375 C -3.757812 -2.539062 -4.601562 -6.859375 -4.71875 -12.515625 C -4.84375 -18.179688 -3.445312 -25.625 -0.53125 -34.84375 C -0.53125 -34.84375 -0.53125 -34.90625 -0.53125 -35.03125 C 2.976562 -46.238281 7.09375 -54.789062 11.8125 -60.6875 C 16.539062 -66.582031 20.597656 -69.585938 23.984375 -69.703125 C 26.671875 -69.816406 28.425781 -68.648438 29.25 -66.203125 C 30.53125 -62.816406 29.007812 -58 24.6875 -51.75 C 20.375 -45.5 14.015625 -38.875 5.609375 -31.875 C 3.035156 -23.695312 1.804688 -17.300781 1.921875 -12.6875 C 2.035156 -8.082031 2.675781 -4.757812 3.84375 -2.71875 C 5.019531 -0.675781 5.957031 0.632812 6.65625 1.21875 C 10.15625 3.789062 14.648438 3.09375 20.140625 -0.875 C 25.503906 -4.613281 30.929688 -9.488281 36.421875 -15.5 C 41.910156 -21.507812 47.925781 -29.128906 54.46875 -38.359375 C 55.050781 -39.054688 55.804688 -39.488281 56.734375 -39.65625 C 57.671875 -39.832031 58.488281 -39.628906 59.1875 -39.046875 Z M 22.765625 -62.34375 C 21.484375 -61.53125 19.734375 -59.804688 17.515625 -57.171875 C 15.296875 -54.546875 13.019531 -50.722656 10.6875 -45.703125 C 14.882812 -49.796875 17.859375 -53.269531 19.609375 -56.125 C 21.359375 -58.988281 22.410156 -61.0625 22.765625 -62.34375 Z M 22.765625 -62.34375 "/></g></g></g><g fill="#000000" fill-opacity="1"><g transform="translate(766.078577, 213.486786)"><g><path d="M 87.90625 -38.171875 C 88.726562 -37.585938 89.164062 -36.828125 89.21875 -35.890625 C 89.28125 -34.960938 89.019531 -34.148438 88.4375 -33.453125 C 84 -28.316406 78.921875 -24.609375 73.203125 -22.328125 C 67.484375 -20.046875 62.054688 -19.609375 56.921875 -21.015625 C 50.960938 -22.535156 46.347656 -26.210938 43.078125 -32.046875 C 40.160156 -21.890625 35.722656 -11.90625 29.765625 -2.09375 C 25.796875 4.550781 21.769531 10.0625 17.6875 14.4375 C 13.601562 18.820312 9.925781 21.539062 6.65625 22.59375 C 5.488281 22.9375 4.378906 23.109375 3.328125 23.109375 C 2.046875 23.109375 0.96875 22.847656 0.09375 22.328125 C -0.78125 21.804688 -1.453125 21.367188 -1.921875 21.015625 C -2.390625 20.429688 -3.003906 19.523438 -3.765625 18.296875 C -4.523438 17.078125 -5.050781 15.09375 -5.34375 12.34375 C -5.632812 9.601562 -5.488281 5.660156 -4.90625 0.515625 C -4.320312 -4.617188 -3.007812 -11.300781 -0.96875 -19.53125 C 1.070312 -27.757812 4.140625 -37.941406 8.234375 -50.078125 C 8.460938 -50.898438 9.015625 -51.515625 9.890625 -51.921875 C 10.765625 -52.328125 11.613281 -52.414062 12.4375 -52.1875 C 13.363281 -51.832031 14.03125 -51.242188 14.4375 -50.421875 C 14.851562 -49.609375 14.882812 -48.738281 14.53125 -47.8125 C 10.914062 -36.832031 8.144531 -27.578125 6.21875 -20.046875 C 4.289062 -12.515625 2.972656 -6.382812 2.265625 -1.65625 C 1.566406 3.0625 1.25 6.675781 1.3125 9.1875 C 1.375 11.695312 1.609375 13.445312 2.015625 14.4375 C 2.421875 15.4375 2.679688 15.992188 2.796875 16.109375 C 2.921875 16.222656 3.066406 16.3125 3.234375 16.375 C 3.410156 16.4375 3.847656 16.347656 4.546875 16.109375 C 7.003906 15.296875 9.984375 12.929688 13.484375 9.015625 C 16.984375 5.109375 20.515625 0.207031 24.078125 -5.6875 C 27.640625 -11.582031 30.765625 -17.914062 33.453125 -24.6875 C 36.140625 -31.457031 37.945312 -38.113281 38.875 -44.65625 C 39.113281 -46.519531 40.222656 -47.515625 42.203125 -47.640625 C 44.066406 -47.640625 45.175781 -46.703125 45.53125 -44.828125 C 47.394531 -35.023438 51.773438 -29.25 58.671875 -27.5 C 62.523438 -26.445312 66.695312 -26.851562 71.1875 -28.71875 C 75.6875 -30.582031 79.6875 -33.617188 83.1875 -37.828125 C 83.882812 -38.523438 84.671875 -38.898438 85.546875 -38.953125 C 86.421875 -39.015625 87.207031 -38.753906 87.90625 -38.171875 Z M 87.90625 -38.171875 "/></g></g></g><g fill="#000000" fill-opacity="1"><g transform="translate(848.734105, 213.486786)"><g><path d="M 59.1875 -39.046875 C 60.007812 -38.585938 60.476562 -37.890625 60.59375 -36.953125 C 60.707031 -36.015625 60.53125 -35.195312 60.0625 -34.5 C 53.175781 -24.925781 46.875 -17.015625 41.15625 -10.765625 C 35.4375 -4.523438 29.710938 0.640625 23.984375 4.734375 C 19.671875 7.765625 15.410156 9.28125 11.203125 9.28125 C 7.929688 9.28125 5.070312 8.40625 2.625 6.65625 C 0.988281 5.488281 -0.613281 3.414062 -2.1875 0.4375 C -3.757812 -2.539062 -4.601562 -6.859375 -4.71875 -12.515625 C -4.84375 -18.179688 -3.445312 -25.625 -0.53125 -34.84375 C -0.53125 -34.84375 -0.53125 -34.90625 -0.53125 -35.03125 C 2.976562 -46.238281 7.09375 -54.789062 11.8125 -60.6875 C 16.539062 -66.582031 20.597656 -69.585938 23.984375 -69.703125 C 26.671875 -69.816406 28.425781 -68.648438 29.25 -66.203125 C 30.53125 -62.816406 29.007812 -58 24.6875 -51.75 C 20.375 -45.5 14.015625 -38.875 5.609375 -31.875 C 3.035156 -23.695312 1.804688 -17.300781 1.921875 -12.6875 C 2.035156 -8.082031 2.675781 -4.757812 3.84375 -2.71875 C 5.019531 -0.675781 5.957031 0.632812 6.65625 1.21875 C 10.15625 3.789062 14.648438 3.09375 20.140625 -0.875 C 25.503906 -4.613281 30.929688 -9.488281 36.421875 -15.5 C 41.910156 -21.507812 47.925781 -29.128906 54.46875 -38.359375 C 55.050781 -39.054688 55.804688 -39.488281 56.734375 -39.65625 C 57.671875 -39.832031 58.488281 -39.628906 59.1875 -39.046875 Z M 22.765625 -62.34375 C 21.484375 -61.53125 19.734375 -59.804688 17.515625 -57.171875 C 15.296875 -54.546875 13.019531 -50.722656 10.6875 -45.703125 C 14.882812 -49.796875 17.859375 -53.269531 19.609375 -56.125 C 21.359375 -58.988281 22.410156 -61.0625 22.765625 -62.34375 Z M 22.765625 -62.34375 "/></g></g></g><g fill="#000000" fill-opacity="1"><g transform="translate(899.693306, 213.486786)"><g><path d="M 77.9375 -40.109375 C 78.632812 -39.523438 79.039062 -38.765625 79.15625 -37.828125 C 79.269531 -36.890625 78.976562 -36.070312 78.28125 -35.375 C 74.894531 -31.40625 71.15625 -27.023438 67.0625 -22.234375 C 62.976562 -17.453125 58.976562 -12.785156 55.0625 -8.234375 C 51.15625 -3.679688 47.800781 0.253906 45 3.578125 C 42.195312 6.910156 40.332031 9.160156 39.40625 10.328125 C 37.414062 12.898438 35.488281 15.410156 33.625 17.859375 C 35.144531 24.628906 35.289062 31.019531 34.0625 37.03125 C 32.832031 43.050781 30.785156 48.394531 27.921875 53.0625 C 25.066406 57.726562 22.0625 61.347656 18.90625 63.921875 C 15.644531 66.722656 12.613281 68.125 9.8125 68.125 C 8.0625 68.125 6.597656 67.539062 5.421875 66.375 C 3.441406 64.507812 2.769531 61.734375 3.40625 58.046875 C 4.050781 54.367188 5.539062 50.195312 7.875 45.53125 C 10.21875 40.863281 13.019531 36.019531 16.28125 31 C 19.550781 25.976562 22.878906 21.132812 26.265625 16.46875 C 25.679688 14.363281 24.863281 12.226562 23.8125 10.0625 C 22.757812 7.90625 21.535156 5.71875 20.140625 3.5 C 15.347656 -3.738281 11.289062 -10.535156 7.96875 -16.890625 C 4.644531 -23.253906 3.097656 -29.066406 3.328125 -34.328125 C 3.910156 -44.015625 8.226562 -51.253906 16.28125 -56.046875 C 19.550781 -58.023438 22.992188 -59.1875 26.609375 -59.53125 C 30.234375 -59.882812 33.5625 -59.363281 36.59375 -57.96875 C 37.414062 -57.5 37.972656 -56.828125 38.265625 -55.953125 C 38.554688 -55.078125 38.523438 -54.226562 38.171875 -53.40625 C 37.710938 -52.59375 37.039062 -52.039062 36.15625 -51.75 C 35.28125 -51.457031 34.4375 -51.488281 33.625 -51.84375 C 29.414062 -53.820312 24.804688 -53.296875 19.796875 -50.265625 C 13.722656 -46.640625 10.507812 -41.207031 10.15625 -33.96875 C 9.925781 -29.65625 11.382812 -24.578125 14.53125 -18.734375 C 17.6875 -12.898438 21.425781 -6.769531 25.75 -0.34375 C 27.96875 3.039062 29.773438 6.484375 31.171875 9.984375 C 32.109375 8.816406 33.101562 7.53125 34.15625 6.125 C 35.082031 4.957031 36.972656 2.679688 39.828125 -0.703125 C 42.691406 -4.085938 46.050781 -8.054688 49.90625 -12.609375 C 53.757812 -17.160156 57.757812 -21.828125 61.90625 -26.609375 C 66.050781 -31.398438 69.816406 -35.78125 73.203125 -39.75 C 73.785156 -40.445312 74.539062 -40.851562 75.46875 -40.96875 C 76.40625 -41.09375 77.226562 -40.804688 77.9375 -40.109375 Z M 21.015625 51.484375 C 21.828125 50.203125 22.816406 48.363281 23.984375 45.96875 C 25.160156 43.570312 26.1875 40.648438 27.0625 37.203125 C 27.9375 33.765625 28.195312 29.945312 27.84375 25.75 C 22.476562 33.332031 18.476562 39.632812 15.84375 44.65625 C 13.21875 49.675781 11.523438 53.5 10.765625 56.125 C 10.003906 58.75 9.742188 60.472656 9.984375 61.296875 C 10.796875 61.296875 12.253906 60.535156 14.359375 59.015625 C 16.460938 57.492188 18.679688 54.984375 21.015625 51.484375 Z M 21.015625 51.484375 "/></g></g></g><g fill="#000000" fill-opacity="1"><g transform="translate(970.275978, 213.486786)"><g/></g></g></svg>