<svg xmlns="http://www.w3.org/2000/svg" xmlns:xlink="http://www.w3.org/1999/xlink" width="1400" zoomAndPan="magnify" viewBox="0 0 1050 412.499988" height="550" preserveAspectRatio="xMidYMid meet" version="1.0"><defs><g/></defs><g fill="#ffffff" fill-opacity="1"><g transform="translate(0.785732, 186.59955)"><g><path d="M 173.90625 -52.890625 C 174.257812 -52.054688 174.253906 -51.1875 173.890625 -50.28125 C 173.535156 -49.382812 172.941406 -48.757812 172.109375 -48.40625 C 165.054688 -45.539062 158.332031 -42.613281 151.9375 -39.625 C 145.539062 -36.632812 139.414062 -33.707031 133.5625 -30.84375 C 124.601562 7.769531 113.488281 39.984375 100.21875 65.796875 C 90.539062 84.796875 80.140625 99.675781 69.015625 110.4375 C 57.898438 121.195312 47.085938 126.875 36.578125 127.46875 C 35.972656 127.582031 35.375 127.640625 34.78125 127.640625 C 28.5625 127.640625 23.269531 125.757812 18.90625 122 C 14.550781 118.238281 11.597656 113.007812 10.046875 106.3125 C 8.609375 100.09375 8.664062 92.859375 10.21875 84.609375 C 11.769531 76.367188 15.113281 67.40625 20.25 57.71875 C 25.394531 48.039062 32.628906 37.972656 41.953125 27.515625 C 51.273438 17.054688 63.015625 6.476562 77.171875 -4.21875 C 91.335938 -14.914062 108.160156 -25.34375 127.640625 -35.5 C 134.929688 -67.53125 140.550781 -103.023438 144.5 -141.984375 C 144.851562 -145.453125 145.09375 -148.441406 145.21875 -150.953125 C 144.257812 -148.921875 143.242188 -146.648438 142.171875 -144.140625 C 141.097656 -141.628906 140.019531 -139.117188 138.9375 -136.609375 C 135.945312 -129.796875 132.507812 -122.054688 128.625 -113.390625 C 124.75 -104.722656 120.421875 -95.878906 115.640625 -86.859375 C 110.859375 -77.835938 105.6875 -69.234375 100.125 -61.046875 C 94.570312 -52.859375 88.6875 -45.835938 82.46875 -39.984375 C 66.925781 -25.398438 54.554688 -19.601562 45.359375 -22.59375 C 43.203125 -23.1875 40.925781 -24.675781 38.53125 -27.0625 C 36.144531 -29.457031 34.359375 -33.460938 33.171875 -39.078125 C 32.210938 -44.222656 32.03125 -50.203125 32.625 -57.015625 C 33.226562 -63.828125 34.546875 -70.96875 36.578125 -78.4375 C 38.609375 -85.90625 41.296875 -93.3125 44.640625 -100.65625 C 47.984375 -108.007812 51.925781 -114.910156 56.46875 -121.359375 C 61.007812 -127.816406 66.03125 -133.378906 71.53125 -138.046875 C 72.25 -138.640625 73.085938 -138.90625 74.046875 -138.84375 C 75.003906 -138.789062 75.78125 -138.40625 76.375 -137.6875 C 76.96875 -136.96875 77.234375 -136.128906 77.171875 -135.171875 C 77.117188 -134.222656 76.734375 -133.445312 76.015625 -132.84375 C 70.992188 -128.539062 66.390625 -123.398438 62.203125 -117.421875 C 58.023438 -111.453125 54.351562 -105 51.1875 -98.0625 C 48.019531 -91.132812 45.421875 -84.171875 43.390625 -77.171875 C 41.359375 -70.179688 40.039062 -63.488281 39.4375 -57.09375 C 38.84375 -50.707031 39.023438 -45.125 39.984375 -40.34375 C 40.460938 -38.1875 41.238281 -35.941406 42.3125 -33.609375 C 43.382812 -31.285156 45.117188 -29.765625 47.515625 -29.046875 C 48.703125 -28.679688 50.550781 -28.675781 53.0625 -29.03125 C 55.570312 -29.394531 58.828125 -30.769531 62.828125 -33.15625 C 66.835938 -35.550781 71.769531 -39.5 77.625 -45 C 83.601562 -50.613281 89.28125 -57.394531 94.65625 -65.34375 C 100.039062 -73.289062 105.0625 -81.6875 109.71875 -90.53125 C 114.382812 -99.375 118.65625 -108.039062 122.53125 -116.53125 C 126.414062 -125.019531 129.796875 -132.609375 132.671875 -139.296875 C 135.773438 -146.472656 138.222656 -151.941406 140.015625 -155.703125 C 141.804688 -159.472656 143.328125 -162.015625 144.578125 -163.328125 C 145.835938 -164.640625 147.242188 -165.054688 148.796875 -164.578125 C 150.117188 -164.222656 151.078125 -163.382812 151.671875 -162.0625 C 152.265625 -160.75 152.5 -158.476562 152.375 -155.25 C 152.257812 -152.03125 151.90625 -147.375 151.3125 -141.28125 C 147.601562 -104.34375 142.34375 -70.394531 135.53125 -39.4375 C 140.789062 -42.070312 146.257812 -44.671875 151.9375 -47.234375 C 157.613281 -49.804688 163.441406 -52.289062 169.421875 -54.6875 C 170.253906 -55.039062 171.117188 -55.035156 172.015625 -54.671875 C 172.910156 -54.316406 173.539062 -53.722656 173.90625 -52.890625 Z M 94.125 62.5625 C 106.4375 38.539062 116.894531 8.84375 125.5 -26.53125 C 104.101562 -14.9375 86.800781 -3.613281 73.59375 7.4375 C 60.382812 18.5 50.195312 28.332031 43.03125 36.9375 C 32.75 49.125 25.273438 61.222656 20.609375 73.234375 C 15.953125 85.242188 14.703125 95.789062 16.859375 104.875 C 18.046875 110.132812 20.3125 114.164062 23.65625 116.96875 C 27.007812 119.78125 31.132812 121.007812 36.03125 120.65625 C 42.25 120.300781 48.675781 117.734375 55.3125 112.953125 C 61.945312 108.171875 68.578125 101.535156 75.203125 93.046875 C 81.835938 84.554688 88.144531 74.394531 94.125 62.5625 Z M 94.125 62.5625 "/></g></g></g><g fill="#ffffff" fill-opacity="1"><g transform="translate(170.712237, 186.59955)"><g><path d="M 75.125 -39.796875 C 75.957031 -39.441406 76.519531 -38.816406 76.8125 -37.921875 C 77.113281 -37.023438 77.085938 -36.15625 76.734375 -35.3125 C 74.460938 -30.65625 71.984375 -25.992188 69.296875 -21.328125 C 66.609375 -16.671875 63.796875 -12.398438 60.859375 -8.515625 C 57.929688 -4.628906 54.914062 -1.523438 51.8125 0.796875 C 48.707031 3.128906 45.597656 4.296875 42.484375 4.296875 C 41.890625 4.296875 41.234375 4.238281 40.515625 4.125 C 32.503906 2.570312 27.546875 -8.179688 25.640625 -28.140625 C 23.609375 -25.398438 21.242188 -22.320312 18.546875 -18.90625 C 15.859375 -15.5 13.023438 -12.125 10.046875 -8.78125 C 9.566406 -8.300781 8.785156 -7.550781 7.703125 -6.53125 C 6.628906 -5.519531 5.375 -4.71875 3.9375 -4.125 C 2.507812 -3.53125 1.078125 -3.585938 -0.359375 -4.296875 C -3.222656 -5.378906 -4.597656 -8.488281 -4.484375 -13.625 C -4.484375 -16.613281 -3.914062 -20.316406 -2.78125 -24.734375 C -1.644531 -29.160156 -0.03125 -33.613281 2.0625 -38.09375 C 4.15625 -42.570312 6.601562 -46.546875 9.40625 -50.015625 C 12.21875 -53.484375 15.359375 -55.816406 18.828125 -57.015625 C 20.972656 -57.847656 23.597656 -57.992188 26.703125 -57.453125 C 29.816406 -56.921875 33.046875 -54.679688 36.390625 -50.734375 C 36.992188 -50.015625 37.265625 -49.175781 37.203125 -48.21875 C 37.140625 -47.269531 36.75 -46.492188 36.03125 -45.890625 C 35.3125 -45.296875 34.472656 -45.023438 33.515625 -45.078125 C 32.566406 -45.140625 31.789062 -45.53125 31.1875 -46.25 C 28.320312 -49.601562 25.84375 -51.1875 23.75 -51 C 21.664062 -50.820312 19.90625 -50.195312 18.46875 -49.125 C 15.832031 -47.207031 13.4375 -44.457031 11.28125 -40.875 C 9.132812 -37.289062 7.34375 -33.523438 5.90625 -29.578125 C 4.476562 -25.640625 3.460938 -21.96875 2.859375 -18.5625 C 2.265625 -15.15625 2.085938 -12.671875 2.328125 -11.109375 C 2.691406 -11.347656 3.082031 -11.644531 3.5 -12 C 3.914062 -12.363281 4.363281 -12.847656 4.84375 -13.453125 C 8.425781 -17.390625 11.710938 -21.300781 14.703125 -25.1875 C 17.691406 -29.070312 20.257812 -32.507812 22.40625 -35.5 C 23.007812 -36.332031 23.578125 -37.132812 24.109375 -37.90625 C 24.648438 -38.6875 25.160156 -39.378906 25.640625 -39.984375 C 26.597656 -41.171875 27.851562 -41.53125 29.40625 -41.0625 C 30.957031 -40.695312 31.789062 -39.675781 31.90625 -38 C 32.269531 -30.238281 32.898438 -23.992188 33.796875 -19.265625 C 34.691406 -14.546875 35.675781 -11.019531 36.75 -8.6875 C 37.820312 -6.363281 38.835938 -4.78125 39.796875 -3.9375 C 40.753906 -3.101562 41.472656 -2.6875 41.953125 -2.6875 C 44.222656 -2.207031 47.867188 -4.535156 52.890625 -9.671875 C 57.910156 -14.816406 63.765625 -24.320312 70.453125 -38.1875 C 70.929688 -39.144531 71.617188 -39.769531 72.515625 -40.0625 C 73.410156 -40.363281 74.28125 -40.273438 75.125 -39.796875 Z M 75.125 -39.796875 "/></g></g></g><g fill="#ffffff" fill-opacity="1"><g transform="translate(237.392245, 186.59955)"><g><path d="M 101.109375 -40.15625 C 101.828125 -39.5625 102.21875 -38.785156 102.28125 -37.828125 C 102.34375 -36.867188 102.070312 -36.03125 101.46875 -35.3125 C 86.289062 -17.507812 74.28125 -10.28125 65.4375 -13.625 C 59.101562 -16.019531 55.695312 -23.609375 55.21875 -36.390625 C 53.90625 -34.003906 52.5 -31.285156 51 -28.234375 C 49.507812 -25.191406 48.285156 -22.710938 47.328125 -20.796875 C 46.609375 -19.003906 45.890625 -17.390625 45.171875 -15.953125 C 44.460938 -14.515625 43.804688 -13.320312 43.203125 -12.375 C 42.847656 -11.65625 42.222656 -10.609375 41.328125 -9.234375 C 40.429688 -7.859375 39.296875 -6.660156 37.921875 -5.640625 C 36.546875 -4.628906 34.960938 -4.363281 33.171875 -4.84375 C 31.015625 -5.4375 29.398438 -7.019531 28.328125 -9.59375 C 27.253906 -12.164062 26.597656 -14.972656 26.359375 -18.015625 C 26.117188 -21.066406 26 -23.546875 26 -25.453125 C 26 -27.003906 26 -28.5 26 -29.9375 C 26 -31.375 26.054688 -32.691406 26.171875 -33.890625 C 21.992188 -27.910156 17.988281 -21.722656 14.15625 -15.328125 C 10.332031 -8.929688 6.269531 -1.609375 1.96875 6.640625 C 0.539062 9.378906 -1.007812 10.75 -2.6875 10.75 C -3.28125 10.75 -3.816406 10.570312 -4.296875 10.21875 C -4.898438 9.976562 -5.441406 9.585938 -5.921875 9.046875 C -6.398438 8.515625 -6.664062 7.441406 -6.71875 5.828125 C -6.78125 4.210938 -6.539062 1.734375 -6 -1.609375 C -5.46875 -4.960938 -4.425781 -9.625 -2.875 -15.59375 C -1.070312 -22.882812 1.050781 -30.113281 3.5 -37.28125 C 5.945312 -44.457031 8.425781 -50.914062 10.9375 -56.65625 C 11.289062 -57.613281 11.914062 -58.269531 12.8125 -58.625 C 13.707031 -58.976562 14.578125 -58.921875 15.421875 -58.453125 C 16.378906 -58.085938 17.003906 -57.457031 17.296875 -56.5625 C 17.597656 -55.664062 17.570312 -54.800781 17.21875 -53.96875 C 13.988281 -46.4375 11.085938 -38.578125 8.515625 -30.390625 C 5.941406 -22.203125 3.941406 -15.0625 2.515625 -8.96875 C 6.210938 -15.539062 9.851562 -21.664062 13.4375 -27.34375 C 17.03125 -33.019531 20.796875 -38.546875 24.734375 -43.921875 C 25.097656 -44.398438 25.726562 -45.054688 26.625 -45.890625 C 27.519531 -46.734375 28.742188 -46.914062 30.296875 -46.4375 C 31.847656 -45.832031 32.710938 -44.691406 32.890625 -43.015625 C 33.078125 -41.347656 33.109375 -38.539062 32.984375 -34.59375 C 32.984375 -33.28125 32.953125 -31.847656 32.890625 -30.296875 C 32.835938 -28.742188 32.8125 -27.128906 32.8125 -25.453125 C 32.8125 -21.867188 33.050781 -18.941406 33.53125 -16.671875 C 34.007812 -14.398438 34.425781 -12.847656 34.78125 -12.015625 C 35.019531 -12.253906 35.347656 -12.671875 35.765625 -13.265625 C 36.179688 -13.859375 36.691406 -14.632812 37.296875 -15.59375 C 37.765625 -16.4375 38.328125 -17.570312 38.984375 -19 C 39.648438 -20.4375 40.398438 -21.992188 41.234375 -23.671875 C 44.335938 -30.359375 46.875 -35.492188 48.84375 -39.078125 C 50.820312 -42.671875 52.523438 -45.125 53.953125 -46.4375 C 55.390625 -47.75 56.890625 -48.226562 58.453125 -47.875 C 60.359375 -47.394531 61.457031 -46.226562 61.75 -44.375 C 62.050781 -42.519531 62.203125 -41.054688 62.203125 -39.984375 C 62.085938 -34.359375 62.535156 -29.8125 63.546875 -26.34375 C 64.566406 -22.882812 66.035156 -20.796875 67.953125 -20.078125 C 70.097656 -19.242188 73.53125 -20.203125 78.25 -22.953125 C 82.976562 -25.703125 88.988281 -31.316406 96.28125 -39.796875 C 96.875 -40.515625 97.644531 -40.90625 98.59375 -40.96875 C 99.550781 -41.03125 100.390625 -40.757812 101.109375 -40.15625 Z M 101.109375 -40.15625 "/></g></g></g><g fill="#ffffff" fill-opacity="1"><g transform="translate(330.780146, 186.59955)"><g><path d="M 60.59375 -39.984375 C 61.4375 -39.503906 61.914062 -38.785156 62.03125 -37.828125 C 62.144531 -36.867188 61.96875 -36.03125 61.5 -35.3125 C 54.445312 -25.519531 47.988281 -17.425781 42.125 -11.03125 C 36.269531 -4.632812 30.414062 0.65625 24.5625 4.84375 C 20.132812 7.945312 15.769531 9.5 11.46875 9.5 C 8.125 9.5 5.195312 8.601562 2.6875 6.8125 C 1.007812 5.613281 -0.628906 3.488281 -2.234375 0.4375 C -3.847656 -2.601562 -4.710938 -7.019531 -4.828125 -12.8125 C -4.953125 -18.613281 -3.519531 -26.234375 -0.53125 -35.671875 C -0.53125 -35.671875 -0.53125 -35.734375 -0.53125 -35.859375 C 3.050781 -47.328125 7.257812 -56.078125 12.09375 -62.109375 C 16.9375 -68.148438 21.09375 -71.234375 24.5625 -71.359375 C 27.3125 -71.472656 29.101562 -70.273438 29.9375 -67.765625 C 31.25 -64.296875 29.691406 -59.363281 25.265625 -52.96875 C 20.847656 -46.582031 14.335938 -39.800781 5.734375 -32.625 C 3.109375 -24.257812 1.851562 -17.71875 1.96875 -13 C 2.09375 -8.28125 2.75 -4.875 3.9375 -2.78125 C 5.132812 -0.6875 6.09375 0.65625 6.8125 1.25 C 10.394531 3.882812 15 3.171875 20.625 -0.890625 C 26.113281 -4.722656 31.664062 -9.710938 37.28125 -15.859375 C 42.90625 -22.015625 49.0625 -29.816406 55.75 -39.265625 C 56.351562 -39.984375 57.128906 -40.429688 58.078125 -40.609375 C 59.035156 -40.785156 59.875 -40.578125 60.59375 -39.984375 Z M 23.3125 -63.828125 C 21.988281 -62.984375 20.191406 -61.21875 17.921875 -58.53125 C 15.648438 -55.84375 13.320312 -51.929688 10.9375 -46.796875 C 15.238281 -50.972656 18.285156 -54.523438 20.078125 -57.453125 C 21.867188 -60.390625 22.945312 -62.515625 23.3125 -63.828125 Z M 23.3125 -63.828125 "/></g></g></g><g fill="#ffffff" fill-opacity="1"><g transform="translate(382.941139, 186.59955)"><g><path d="M 52.703125 -167.984375 C 54.265625 -165.710938 54.296875 -161.109375 52.796875 -154.171875 C 51.304688 -147.242188 48.226562 -138.671875 43.5625 -128.453125 C 38.90625 -118.234375 32.691406 -106.910156 24.921875 -94.484375 C 24.796875 -94.359375 24.675781 -94.238281 24.5625 -94.125 C 21.457031 -81.457031 18.378906 -68.546875 15.328125 -55.390625 C 12.273438 -42.242188 9.375 -29.335938 6.625 -16.671875 C 3.882812 -4.003906 1.378906 7.914062 -0.890625 19.09375 C -3.160156 30.269531 -5.101562 40.21875 -6.71875 48.9375 C -8.332031 57.664062 -9.5 64.660156 -10.21875 69.921875 C -10.101562 69.921875 -9.984375 69.921875 -9.859375 69.921875 C -8.898438 70.273438 -8.210938 70.867188 -7.796875 71.703125 C -7.378906 72.546875 -7.347656 73.445312 -7.703125 74.40625 C -8.546875 76.675781 -9.414062 78.734375 -10.3125 80.578125 C -11.207031 82.429688 -12.429688 83.359375 -13.984375 83.359375 C -14.335938 83.359375 -14.753906 83.300781 -15.234375 83.1875 C -16.316406 82.832031 -17.09375 82.085938 -17.5625 80.953125 C -18.039062 79.816406 -18.101562 77.539062 -17.75 74.125 C -17.394531 70.71875 -16.617188 65.492188 -15.421875 58.453125 C -13.265625 45.535156 -10.035156 28.679688 -5.734375 7.890625 C -2.628906 -6.691406 0.625 -21.539062 4.03125 -36.65625 C 7.4375 -51.78125 10.8125 -66.363281 14.15625 -80.40625 C 17.507812 -94.445312 20.738281 -107.207031 23.84375 -118.6875 C 24.4375 -120.957031 25.332031 -124.125 26.53125 -128.1875 C 27.726562 -132.25 29.101562 -136.609375 30.65625 -141.265625 C 32.207031 -145.929688 33.9375 -150.414062 35.84375 -154.71875 C 37.757812 -159.019531 39.734375 -162.570312 41.765625 -165.375 C 43.796875 -168.1875 45.832031 -169.773438 47.875 -170.140625 C 49.90625 -170.492188 51.515625 -169.773438 52.703125 -167.984375 Z M 30.84375 -118.140625 C 36.570312 -128.898438 40.601562 -137.863281 42.9375 -145.03125 C 45.269531 -152.207031 46.613281 -157.410156 46.96875 -160.640625 C 45.300781 -158.242188 43.03125 -153.726562 40.15625 -147.09375 C 37.289062 -140.46875 34.1875 -130.816406 30.84375 -118.140625 Z M 30.84375 -118.140625 "/></g></g></g><g fill="#ffffff" fill-opacity="1"><g transform="translate(410.186778, 186.59955)"><g><path d="M 52.53125 -40.875 C 53.363281 -40.394531 53.867188 -39.675781 54.046875 -38.71875 C 54.234375 -37.769531 54.085938 -36.875 53.609375 -36.03125 C 51.335938 -32.445312 48.46875 -28.441406 45 -24.015625 C 41.53125 -19.597656 37.765625 -15.382812 33.703125 -11.375 C 29.640625 -7.375 25.601562 -4.054688 21.59375 -1.421875 C 17.59375 1.203125 13.921875 2.515625 10.578125 2.515625 C 9.140625 2.515625 7.882812 2.273438 6.8125 1.796875 C 2.75 0.00390625 0.507812 -4.328125 0.09375 -11.203125 C -0.320312 -18.078125 1.078125 -27.789062 4.296875 -40.34375 C 4.535156 -41.289062 5.070312 -42.003906 5.90625 -42.484375 C 6.75 -42.960938 7.585938 -43.082031 8.421875 -42.84375 C 9.378906 -42.601562 10.097656 -42.066406 10.578125 -41.234375 C 11.054688 -40.398438 11.175781 -39.5625 10.9375 -38.71875 C 9.019531 -31.070312 7.820312 -25.003906 7.34375 -20.515625 C 6.875 -16.035156 6.785156 -12.660156 7.078125 -10.390625 C 7.378906 -8.117188 7.828125 -6.59375 8.421875 -5.8125 C 9.023438 -5.039062 9.382812 -4.65625 9.5 -4.65625 C 11.050781 -3.9375 13.320312 -4.441406 16.3125 -6.171875 C 19.300781 -7.910156 22.644531 -10.484375 26.34375 -13.890625 C 30.050781 -17.296875 33.785156 -21.238281 37.546875 -25.71875 C 41.316406 -30.207031 44.695312 -34.898438 47.6875 -39.796875 C 48.28125 -40.640625 49.023438 -41.148438 49.921875 -41.328125 C 50.828125 -41.503906 51.695312 -41.351562 52.53125 -40.875 Z M 10.21875 -55.21875 C 7.832031 -55.332031 6.609375 -56.015625 6.546875 -57.265625 C 6.484375 -58.523438 7.019531 -59.8125 8.15625 -61.125 C 9.289062 -62.445312 10.457031 -63.347656 11.65625 -63.828125 C 13.5625 -64.421875 14.960938 -64.296875 15.859375 -63.453125 C 16.765625 -62.617188 17.1875 -61.546875 17.125 -60.234375 C 17.0625 -58.921875 16.460938 -57.726562 15.328125 -56.65625 C 14.191406 -55.582031 12.488281 -55.101562 10.21875 -55.21875 Z M 10.21875 -55.21875 "/></g></g></g><g fill="#ffffff" fill-opacity="1"><g transform="translate(455.536362, 186.59955)"><g><path d="M 72.25 -39.984375 C 73.082031 -39.503906 73.617188 -38.816406 73.859375 -37.921875 C 74.097656 -37.023438 73.976562 -36.15625 73.5 -35.3125 C 67.882812 -25.394531 62.835938 -17.773438 58.359375 -12.453125 C 53.878906 -7.140625 49.304688 -4.78125 44.640625 -5.375 C 38.660156 -6.09375 33.941406 -12.546875 30.484375 -24.734375 C 29.285156 -28.679688 28.238281 -31.519531 27.34375 -33.25 C 26.445312 -34.988281 25.726562 -36.066406 25.1875 -36.484375 C 24.644531 -36.898438 24.257812 -37.109375 24.03125 -37.109375 C 23.664062 -37.234375 22.945312 -36.875 21.875 -36.03125 C 20.800781 -35.195312 19.242188 -33.34375 17.203125 -30.46875 C 15.171875 -27.601562 12.660156 -23.148438 9.671875 -17.109375 C 6.691406 -11.078125 3.050781 -2.804688 -1.25 7.703125 C -1.851562 9.140625 -2.867188 9.859375 -4.296875 9.859375 C -4.660156 9.859375 -4.960938 9.800781 -5.203125 9.6875 C -7.234375 9.207031 -8.128906 7.953125 -7.890625 5.921875 C -7.285156 1.015625 -6.207031 -4.660156 -4.65625 -11.109375 C -3.101562 -17.566406 -1.398438 -24.140625 0.453125 -30.828125 C 2.304688 -37.523438 4.007812 -43.503906 5.5625 -48.765625 C 5.914062 -49.960938 6.238281 -51.066406 6.53125 -52.078125 C 6.832031 -53.097656 7.101562 -54.085938 7.34375 -55.046875 C 7.707031 -55.992188 8.304688 -56.675781 9.140625 -57.09375 C 9.972656 -57.519531 10.8125 -57.613281 11.65625 -57.375 C 12.613281 -57.132812 13.328125 -56.59375 13.796875 -55.75 C 14.273438 -54.914062 14.335938 -54.019531 13.984375 -53.0625 C 13.742188 -52.113281 13.472656 -51.128906 13.171875 -50.109375 C 12.878906 -49.085938 12.550781 -47.984375 12.1875 -46.796875 C 11.351562 -43.679688 10.394531 -40.269531 9.3125 -36.5625 C 8.238281 -32.863281 7.164062 -29.101562 6.09375 -25.28125 C 10.15625 -32.925781 13.617188 -38.003906 16.484375 -40.515625 C 19.359375 -43.023438 21.988281 -44.222656 24.375 -44.109375 C 27.726562 -43.867188 30.359375 -42.015625 32.265625 -38.546875 C 34.179688 -35.078125 35.796875 -31.070312 37.109375 -26.53125 C 38.898438 -20.320312 40.570312 -16.378906 42.125 -14.703125 C 43.6875 -13.023438 44.820312 -12.1875 45.53125 -12.1875 C 47.09375 -11.945312 48.914062 -12.8125 51 -14.78125 C 53.09375 -16.757812 55.1875 -19.269531 57.28125 -22.3125 C 59.375 -25.363281 61.34375 -28.382812 63.1875 -31.375 C 65.039062 -34.363281 66.445312 -36.8125 67.40625 -38.71875 C 67.882812 -39.5625 68.601562 -40.101562 69.5625 -40.34375 C 70.519531 -40.582031 71.414062 -40.460938 72.25 -39.984375 Z M 72.25 -39.984375 "/></g></g></g><g fill="#ffffff" fill-opacity="1"><g transform="translate(519.527636, 186.59955)"><g/></g></g><g fill="#ffffff" fill-opacity="1"><g transform="translate(574.556515, 186.59955)"><g><path d="M 162.78125 -174.265625 C 165.65625 -172.347656 168.375 -169.6875 170.9375 -166.28125 C 173.507812 -162.875 175.453125 -158.597656 176.765625 -153.453125 C 178.085938 -148.316406 178.414062 -142.070312 177.75 -134.71875 C 177.09375 -127.375 175.035156 -118.742188 171.578125 -108.828125 C 166.191406 -93.878906 159.796875 -80.3125 152.390625 -68.125 C 144.984375 -55.9375 136.796875 -45.597656 127.828125 -37.109375 C 120.535156 -30.179688 113.035156 -24.800781 105.328125 -20.96875 C 97.617188 -17.144531 90.296875 -15.234375 83.359375 -15.234375 C 82.648438 -15.234375 81.9375 -15.296875 81.21875 -15.421875 C 70.34375 -16.140625 62.632812 -21.28125 58.09375 -30.84375 C 55.21875 -18.53125 52.375 -6.425781 49.5625 5.46875 C 46.757812 17.363281 44.160156 28.628906 41.765625 39.265625 C 39.378906 49.898438 37.347656 59.429688 35.671875 67.859375 C 34.003906 76.285156 32.8125 83.128906 32.09375 88.390625 C 32.332031 87.910156 32.570312 87.367188 32.8125 86.765625 C 33.164062 85.929688 33.789062 85.332031 34.6875 84.96875 C 35.582031 84.613281 36.453125 84.617188 37.296875 84.984375 C 38.128906 85.460938 38.722656 86.148438 39.078125 87.046875 C 39.441406 87.941406 39.441406 88.804688 39.078125 89.640625 C 36.929688 94.296875 35.140625 97.726562 33.703125 99.9375 C 32.265625 102.15625 30.710938 103.265625 29.046875 103.265625 C 28.566406 103.265625 28.085938 103.144531 27.609375 102.90625 C 26.410156 102.550781 25.539062 101.710938 25 100.390625 C 24.46875 99.078125 24.320312 96.835938 24.5625 93.671875 C 24.800781 90.503906 25.457031 85.929688 26.53125 79.953125 C 28.320312 69.078125 31.488281 53.484375 36.03125 33.171875 C 38.90625 20.617188 42.046875 7.171875 45.453125 -7.171875 C 48.859375 -21.515625 52.351562 -36.125 55.9375 -51 C 59.519531 -65.882812 63.046875 -80.378906 66.515625 -94.484375 C 69.859375 -108.109375 72.960938 -120.863281 75.828125 -132.75 C 78.703125 -144.644531 81.210938 -155.078125 83.359375 -164.046875 C 75.597656 -160.691406 68.070312 -156.800781 60.78125 -152.375 C 53.488281 -147.957031 46.972656 -143.238281 41.234375 -138.21875 C 33.347656 -131.289062 27.519531 -124.804688 23.75 -118.765625 C 19.988281 -112.734375 17.628906 -107.117188 16.671875 -101.921875 C 15.710938 -96.722656 15.617188 -92.117188 16.390625 -88.109375 C 17.171875 -84.109375 18.222656 -80.796875 19.546875 -78.171875 C 20.023438 -77.328125 20.113281 -76.457031 19.8125 -75.5625 C 19.507812 -74.664062 18.941406 -73.976562 18.109375 -73.5 C 17.273438 -73.144531 16.40625 -73.113281 15.5 -73.40625 C 14.601562 -73.707031 13.921875 -74.28125 13.453125 -75.125 C 8.191406 -85.632812 7.5625 -96.863281 11.5625 -108.8125 C 15.5625 -120.769531 23.898438 -132.304688 36.578125 -143.421875 C 43.390625 -149.273438 50.945312 -154.679688 59.25 -159.640625 C 67.5625 -164.609375 76.257812 -168.828125 85.34375 -172.296875 C 85.820312 -174.679688 86.296875 -176.832031 86.765625 -178.75 C 86.890625 -179.582031 87.367188 -180.265625 88.203125 -180.796875 C 89.046875 -181.335938 89.941406 -181.488281 90.890625 -181.25 C 91.734375 -181.132812 92.421875 -180.65625 92.953125 -179.8125 C 93.492188 -178.976562 93.644531 -178.082031 93.40625 -177.125 C 93.40625 -176.769531 93.34375 -176.410156 93.21875 -176.046875 C 93.101562 -175.691406 93.046875 -175.394531 93.046875 -175.15625 C 96.035156 -176.113281 99.023438 -177.007812 102.015625 -177.84375 C 114.796875 -181.3125 126.414062 -182.742188 136.875 -182.140625 C 147.332031 -181.546875 155.96875 -178.921875 162.78125 -174.265625 Z M 164.9375 -111.15625 C 166.726562 -116.050781 168.222656 -121.21875 169.421875 -126.65625 C 170.617188 -132.09375 171.21875 -137.441406 171.21875 -142.703125 C 171.21875 -147.960938 170.257812 -152.832031 168.34375 -157.3125 C 166.4375 -161.800781 163.269531 -165.597656 158.84375 -168.703125 C 152.988281 -172.648438 145.25 -174.832031 135.625 -175.25 C 126 -175.664062 115.390625 -174.320312 103.796875 -171.21875 C 99.617188 -170.019531 95.378906 -168.644531 91.078125 -167.09375 C 89.046875 -157.882812 86.472656 -146.914062 83.359375 -134.1875 C 80.253906 -121.457031 76.910156 -107.6875 73.328125 -92.875 C 71.296875 -84.976562 69.234375 -76.753906 67.140625 -68.203125 C 65.046875 -59.660156 62.925781 -50.910156 60.78125 -41.953125 C 61.613281 -41.472656 62.148438 -40.753906 62.390625 -39.796875 C 64.773438 -28.804688 71.171875 -22.953125 81.578125 -22.234375 C 87.671875 -21.867188 94.363281 -23.421875 101.65625 -26.890625 C 108.945312 -30.359375 116.117188 -35.4375 123.171875 -42.125 C 127.109375 -45.832031 131.5 -50.765625 136.34375 -56.921875 C 141.1875 -63.078125 146.085938 -70.609375 151.046875 -79.515625 C 156.003906 -88.421875 160.632812 -98.96875 164.9375 -111.15625 Z M 164.9375 -111.15625 "/></g></g></g><g fill="#ffffff" fill-opacity="1"><g transform="translate(732.652735, 186.59955)"><g><path d="M 60.59375 -39.984375 C 61.4375 -39.503906 61.914062 -38.785156 62.03125 -37.828125 C 62.144531 -36.867188 61.96875 -36.03125 61.5 -35.3125 C 54.445312 -25.519531 47.988281 -17.425781 42.125 -11.03125 C 36.269531 -4.632812 30.414062 0.65625 24.5625 4.84375 C 20.132812 7.945312 15.769531 9.5 11.46875 9.5 C 8.125 9.5 5.195312 8.601562 2.6875 6.8125 C 1.007812 5.613281 -0.628906 3.488281 -2.234375 0.4375 C -3.847656 -2.601562 -4.710938 -7.019531 -4.828125 -12.8125 C -4.953125 -18.613281 -3.519531 -26.234375 -0.53125 -35.671875 C -0.53125 -35.671875 -0.53125 -35.734375 -0.53125 -35.859375 C 3.050781 -47.328125 7.257812 -56.078125 12.09375 -62.109375 C 16.9375 -68.148438 21.09375 -71.234375 24.5625 -71.359375 C 27.3125 -71.472656 29.101562 -70.273438 29.9375 -67.765625 C 31.25 -64.296875 29.691406 -59.363281 25.265625 -52.96875 C 20.847656 -46.582031 14.335938 -39.800781 5.734375 -32.625 C 3.109375 -24.257812 1.851562 -17.71875 1.96875 -13 C 2.09375 -8.28125 2.75 -4.875 3.9375 -2.78125 C 5.132812 -0.6875 6.09375 0.65625 6.8125 1.25 C 10.394531 3.882812 15 3.171875 20.625 -0.890625 C 26.113281 -4.722656 31.664062 -9.710938 37.28125 -15.859375 C 42.90625 -22.015625 49.0625 -29.816406 55.75 -39.265625 C 56.351562 -39.984375 57.128906 -40.429688 58.078125 -40.609375 C 59.035156 -40.785156 59.875 -40.578125 60.59375 -39.984375 Z M 23.3125 -63.828125 C 21.988281 -62.984375 20.191406 -61.21875 17.921875 -58.53125 C 15.648438 -55.84375 13.320312 -51.929688 10.9375 -46.796875 C 15.238281 -50.972656 18.285156 -54.523438 20.078125 -57.453125 C 21.867188 -60.390625 22.945312 -62.515625 23.3125 -63.828125 Z M 23.3125 -63.828125 "/></g></g></g><g fill="#ffffff" fill-opacity="1"><g transform="translate(784.813728, 186.59955)"><g><path d="M 90 -39.078125 C 90.832031 -38.484375 91.28125 -37.707031 91.34375 -36.75 C 91.40625 -35.789062 91.132812 -34.957031 90.53125 -34.25 C 85.988281 -28.988281 80.789062 -25.191406 74.9375 -22.859375 C 69.082031 -20.523438 63.523438 -20.078125 58.265625 -21.515625 C 52.171875 -23.066406 47.453125 -26.832031 44.109375 -32.8125 C 41.117188 -22.414062 36.578125 -12.195312 30.484375 -2.15625 C 26.410156 4.65625 22.28125 10.300781 18.09375 14.78125 C 13.914062 19.269531 10.15625 22.050781 6.8125 23.125 C 5.613281 23.488281 4.476562 23.671875 3.40625 23.671875 C 2.09375 23.671875 0.988281 23.398438 0.09375 22.859375 C -0.800781 22.316406 -1.488281 21.867188 -1.96875 21.515625 C -2.445312 20.921875 -3.070312 19.992188 -3.84375 18.734375 C -4.625 17.484375 -5.164062 15.453125 -5.46875 12.640625 C -5.769531 9.828125 -5.617188 5.789062 -5.015625 0.53125 C -4.421875 -4.71875 -3.078125 -11.554688 -0.984375 -19.984375 C 1.109375 -28.410156 4.242188 -38.84375 8.421875 -51.28125 C 8.660156 -52.113281 9.226562 -52.738281 10.125 -53.15625 C 11.019531 -53.570312 11.890625 -53.660156 12.734375 -53.421875 C 13.679688 -53.066406 14.363281 -52.46875 14.78125 -51.625 C 15.207031 -50.789062 15.238281 -49.894531 14.875 -48.9375 C 11.175781 -37.707031 8.335938 -28.238281 6.359375 -20.53125 C 4.390625 -12.820312 3.046875 -6.546875 2.328125 -1.703125 C 1.609375 3.140625 1.28125 6.84375 1.34375 9.40625 C 1.40625 11.976562 1.644531 13.769531 2.0625 14.78125 C 2.476562 15.800781 2.75 16.375 2.875 16.5 C 2.988281 16.613281 3.132812 16.703125 3.3125 16.765625 C 3.488281 16.828125 3.9375 16.738281 4.65625 16.5 C 7.164062 15.65625 10.210938 13.234375 13.796875 9.234375 C 17.390625 5.234375 21.007812 0.21875 24.65625 -5.8125 C 28.300781 -11.851562 31.492188 -18.335938 34.234375 -25.265625 C 36.984375 -32.203125 38.835938 -39.019531 39.796875 -45.71875 C 40.035156 -47.625 41.171875 -48.640625 43.203125 -48.765625 C 45.117188 -48.765625 46.253906 -47.804688 46.609375 -45.890625 C 48.523438 -35.859375 53.007812 -29.941406 60.0625 -28.140625 C 64 -27.066406 68.269531 -27.484375 72.875 -29.390625 C 77.476562 -31.304688 81.570312 -34.414062 85.15625 -38.71875 C 85.875 -39.4375 86.679688 -39.828125 87.578125 -39.890625 C 88.472656 -39.953125 89.28125 -39.679688 90 -39.078125 Z M 90 -39.078125 "/></g></g></g><g fill="#ffffff" fill-opacity="1"><g transform="translate(869.418529, 186.59955)"><g><path d="M 60.59375 -39.984375 C 61.4375 -39.503906 61.914062 -38.785156 62.03125 -37.828125 C 62.144531 -36.867188 61.96875 -36.03125 61.5 -35.3125 C 54.445312 -25.519531 47.988281 -17.425781 42.125 -11.03125 C 36.269531 -4.632812 30.414062 0.65625 24.5625 4.84375 C 20.132812 7.945312 15.769531 9.5 11.46875 9.5 C 8.125 9.5 5.195312 8.601562 2.6875 6.8125 C 1.007812 5.613281 -0.628906 3.488281 -2.234375 0.4375 C -3.847656 -2.601562 -4.710938 -7.019531 -4.828125 -12.8125 C -4.953125 -18.613281 -3.519531 -26.234375 -0.53125 -35.671875 C -0.53125 -35.671875 -0.53125 -35.734375 -0.53125 -35.859375 C 3.050781 -47.328125 7.257812 -56.078125 12.09375 -62.109375 C 16.9375 -68.148438 21.09375 -71.234375 24.5625 -71.359375 C 27.3125 -71.472656 29.101562 -70.273438 29.9375 -67.765625 C 31.25 -64.296875 29.691406 -59.363281 25.265625 -52.96875 C 20.847656 -46.582031 14.335938 -39.800781 5.734375 -32.625 C 3.109375 -24.257812 1.851562 -17.71875 1.96875 -13 C 2.09375 -8.28125 2.75 -4.875 3.9375 -2.78125 C 5.132812 -0.6875 6.09375 0.65625 6.8125 1.25 C 10.394531 3.882812 15 3.171875 20.625 -0.890625 C 26.113281 -4.722656 31.664062 -9.710938 37.28125 -15.859375 C 42.90625 -22.015625 49.0625 -29.816406 55.75 -39.265625 C 56.351562 -39.984375 57.128906 -40.429688 58.078125 -40.609375 C 59.035156 -40.785156 59.875 -40.578125 60.59375 -39.984375 Z M 23.3125 -63.828125 C 21.988281 -62.984375 20.191406 -61.21875 17.921875 -58.53125 C 15.648438 -55.84375 13.320312 -51.929688 10.9375 -46.796875 C 15.238281 -50.972656 18.285156 -54.523438 20.078125 -57.453125 C 21.867188 -60.390625 22.945312 -62.515625 23.3125 -63.828125 Z M 23.3125 -63.828125 "/></g></g></g><g fill="#ffffff" fill-opacity="1"><g transform="translate(921.579522, 186.59955)"><g><path d="M 79.78125 -41.0625 C 80.5 -40.457031 80.914062 -39.675781 81.03125 -38.71875 C 81.15625 -37.769531 80.859375 -36.9375 80.140625 -36.21875 C 76.671875 -32.15625 72.84375 -27.671875 68.65625 -22.765625 C 64.476562 -17.867188 60.382812 -13.085938 56.375 -8.421875 C 52.375 -3.765625 48.9375 0.265625 46.0625 3.671875 C 43.195312 7.078125 41.289062 9.378906 40.34375 10.578125 C 38.3125 13.203125 36.335938 15.769531 34.421875 18.28125 C 35.972656 25.21875 36.117188 31.765625 34.859375 37.921875 C 33.609375 44.078125 31.519531 49.546875 28.59375 54.328125 C 25.664062 59.109375 22.585938 62.8125 19.359375 65.4375 C 16.015625 68.300781 12.910156 69.734375 10.046875 69.734375 C 8.242188 69.734375 6.75 69.140625 5.5625 67.953125 C 3.53125 66.035156 2.84375 63.191406 3.5 59.421875 C 4.15625 55.660156 5.675781 51.390625 8.0625 46.609375 C 10.457031 41.828125 13.328125 36.867188 16.671875 31.734375 C 20.015625 26.597656 23.421875 21.640625 26.890625 16.859375 C 26.296875 14.703125 25.457031 12.515625 24.375 10.296875 C 23.300781 8.085938 22.050781 5.847656 20.625 3.578125 C 15.71875 -3.828125 11.5625 -10.785156 8.15625 -17.296875 C 4.75 -23.816406 3.164062 -29.765625 3.40625 -35.140625 C 4 -45.054688 8.421875 -52.46875 16.671875 -57.375 C 20.015625 -59.40625 23.539062 -60.597656 27.25 -60.953125 C 30.957031 -61.316406 34.363281 -60.78125 37.46875 -59.34375 C 38.300781 -58.863281 38.867188 -58.175781 39.171875 -57.28125 C 39.472656 -56.382812 39.441406 -55.519531 39.078125 -54.6875 C 38.597656 -53.84375 37.910156 -53.269531 37.015625 -52.96875 C 36.117188 -52.675781 35.253906 -52.707031 34.421875 -53.0625 C 30.117188 -55.09375 25.398438 -54.554688 20.265625 -51.453125 C 14.046875 -47.742188 10.753906 -42.1875 10.390625 -34.78125 C 10.160156 -30.351562 11.65625 -25.148438 14.875 -19.171875 C 18.101562 -13.203125 21.929688 -6.929688 26.359375 -0.359375 C 28.628906 3.109375 30.476562 6.632812 31.90625 10.21875 C 32.863281 9.019531 33.878906 7.707031 34.953125 6.28125 C 35.910156 5.082031 37.851562 2.75 40.78125 -0.71875 C 43.707031 -4.1875 47.144531 -8.25 51.09375 -12.90625 C 55.039062 -17.570312 59.132812 -22.351562 63.375 -27.25 C 67.613281 -32.144531 71.46875 -36.628906 74.9375 -40.703125 C 75.539062 -41.410156 76.316406 -41.820312 77.265625 -41.9375 C 78.222656 -42.0625 79.0625 -41.769531 79.78125 -41.0625 Z M 21.515625 52.703125 C 22.347656 51.390625 23.363281 49.507812 24.5625 47.0625 C 25.757812 44.613281 26.804688 41.625 27.703125 38.09375 C 28.597656 34.570312 28.863281 30.660156 28.5 26.359375 C 23.007812 34.117188 18.914062 40.566406 16.21875 45.703125 C 13.53125 50.847656 11.796875 54.765625 11.015625 57.453125 C 10.242188 60.148438 9.976562 61.914062 10.21875 62.75 C 11.050781 62.75 12.539062 61.972656 14.6875 60.421875 C 16.84375 58.867188 19.117188 56.296875 21.515625 52.703125 Z M 21.515625 52.703125 "/></g></g></g><g fill="#ffffff" fill-opacity="1"><g transform="translate(993.852066, 186.59955)"><g/></g></g><g fill="#f39c12" fill-opacity="1"><g transform="translate(130.432031, 369.082364)"><g><path d="M 54.359375 -53 C 62.804688 -51.988281 69.519531 -49.164062 74.5 -44.53125 C 79.488281 -39.90625 81.984375 -34.171875 81.984375 -27.328125 C 81.984375 -22.097656 80.472656 -17.367188 77.453125 -13.140625 C 74.429688 -8.910156 70.253906 -5.5625 64.921875 -3.09375 C 59.585938 -0.625 53.648438 0.609375 47.109375 0.609375 C 44.285156 0.609375 41.0625 0.457031 37.4375 0.15625 C 36.03125 0.0507812 34.296875 -0.046875 32.234375 -0.140625 C 30.171875 -0.242188 27.878906 -0.296875 25.359375 -0.296875 L 14.34375 -0.15625 C 12.332031 -0.0507812 9.613281 0 6.1875 0 C 5.882812 0 5.734375 -0.300781 5.734375 -0.90625 C 5.734375 -1.507812 5.882812 -1.8125 6.1875 -1.8125 C 9.101562 -1.8125 11.316406 -2.085938 12.828125 -2.640625 C 14.335938 -3.191406 15.421875 -4.195312 16.078125 -5.65625 C 16.734375 -7.113281 17.0625 -9.304688 17.0625 -12.234375 L 17.0625 -82.140625 C 17.0625 -86.367188 16.351562 -89.160156 14.9375 -90.515625 C 13.53125 -91.867188 10.664062 -92.546875 6.34375 -92.546875 C 6.144531 -92.546875 6.046875 -92.847656 6.046875 -93.453125 C 6.046875 -94.054688 6.144531 -94.359375 6.34375 -94.359375 L 14.34375 -94.21875 C 18.96875 -94.007812 22.640625 -93.90625 25.359375 -93.90625 C 28.179688 -93.90625 31.101562 -94.054688 34.125 -94.359375 C 35.125 -94.460938 36.628906 -94.5625 38.640625 -94.65625 C 40.660156 -94.757812 42.425781 -94.8125 43.9375 -94.8125 C 53.09375 -94.8125 60.1875 -93.148438 65.21875 -89.828125 C 70.257812 -86.515625 72.78125 -81.6875 72.78125 -75.34375 C 72.78125 -70.507812 71.191406 -66.128906 68.015625 -62.203125 C 64.847656 -58.273438 60.296875 -55.207031 54.359375 -53 Z M 41.671875 -91.5 C 38.753906 -91.5 36.738281 -90.816406 35.625 -89.453125 C 34.519531 -88.097656 33.96875 -85.554688 33.96875 -81.828125 L 33.96875 -53.140625 L 40.015625 -53 C 45.242188 -53 49.265625 -54.957031 52.078125 -58.875 C 54.898438 -62.800781 56.3125 -67.835938 56.3125 -73.984375 C 56.3125 -79.722656 55.050781 -84.078125 52.53125 -87.046875 C 50.019531 -90.015625 46.398438 -91.5 41.671875 -91.5 Z M 44.546875 -3.171875 C 57.722656 -3.171875 64.3125 -10.015625 64.3125 -23.703125 C 64.3125 -31.453125 62.445312 -37.59375 58.71875 -42.125 C 55 -46.65625 49.367188 -48.921875 41.828125 -48.921875 C 38.898438 -48.921875 36.28125 -48.816406 33.96875 -48.609375 L 33.96875 -12.234375 C 33.96875 -8.910156 34.617188 -6.566406 35.921875 -5.203125 C 37.234375 -3.847656 40.109375 -3.171875 44.546875 -3.171875 Z M 44.546875 -3.171875 "/></g></g></g><g fill="#f39c12" fill-opacity="1"><g transform="translate(220.269354, 369.082364)"><g><path d="M 63.265625 -8.15625 C 63.660156 -8.15625 63.929688 -7.925781 64.078125 -7.46875 C 64.234375 -7.019531 64.113281 -6.695312 63.71875 -6.5 L 48.15625 0.90625 C 47.757812 1.101562 47.257812 1.203125 46.65625 1.203125 C 45.039062 1.203125 43.503906 0.347656 42.046875 -1.359375 C 40.585938 -3.066406 39.554688 -5.378906 38.953125 -8.296875 L 32.46875 -3.78125 C 30.144531 -2.0625 27.976562 -0.820312 25.96875 -0.0625 C 23.957031 0.6875 21.691406 1.0625 19.171875 1.0625 C 14.847656 1.0625 11.578125 0.101562 9.359375 -1.8125 C 7.148438 -3.726562 6.046875 -6.394531 6.046875 -9.8125 C 6.046875 -12.53125 6.695312 -14.71875 8 -16.375 C 9.3125 -18.039062 10.945312 -19.347656 12.90625 -20.296875 C 14.875 -21.253906 17.617188 -22.335938 21.140625 -23.546875 L 24.90625 -24.90625 L 38.5 -29.890625 L 38.5 -38.5 C 38.5 -44.9375 37.96875 -49.613281 36.90625 -52.53125 C 35.851562 -55.457031 34.070312 -56.921875 31.5625 -56.921875 C 26.21875 -56.921875 23.195312 -52.796875 22.5 -44.546875 C 22.195312 -41.523438 21.316406 -39.359375 19.859375 -38.046875 C 18.398438 -36.734375 16.359375 -36.078125 13.734375 -36.078125 C 11.222656 -36.078125 9.390625 -36.601562 8.234375 -37.65625 C 7.078125 -38.71875 6.5 -40.109375 6.5 -41.828125 C 6.5 -44.847656 8.257812 -47.738281 11.78125 -50.5 C 15.300781 -53.269531 19.550781 -55.507812 24.53125 -57.21875 C 29.519531 -58.9375 33.925781 -59.796875 37.75 -59.796875 C 42.175781 -59.796875 45.769531 -58.410156 48.53125 -55.640625 C 51.300781 -52.867188 52.6875 -48.664062 52.6875 -43.03125 L 52.6875 -16.3125 C 52.6875 -13.382812 53.210938 -11.113281 54.265625 -9.5 C 55.328125 -7.894531 56.816406 -7.09375 58.734375 -7.09375 C 60.140625 -7.09375 61.597656 -7.445312 63.109375 -8.15625 Z M 38.65625 -10.875 C 38.550781 -11.269531 38.5 -11.921875 38.5 -12.828125 L 38.5 -27.328125 L 32.015625 -24.3125 C 31.710938 -24.207031 30.703125 -23.828125 28.984375 -23.171875 C 27.273438 -22.515625 25.789062 -21.429688 24.53125 -19.921875 C 23.269531 -18.421875 22.640625 -16.660156 22.640625 -14.640625 C 22.640625 -12.222656 23.421875 -10.332031 24.984375 -8.96875 C 26.546875 -7.613281 28.332031 -6.9375 30.34375 -6.9375 C 31.957031 -6.9375 33.617188 -7.492188 35.328125 -8.609375 Z M 38.65625 -10.875 "/></g></g></g><g fill="#f39c12" fill-opacity="1"><g transform="translate(283.834922, 369.082364)"><g><path d="M 75.046875 -1.8125 C 75.335938 -1.8125 75.484375 -1.507812 75.484375 -0.90625 C 75.484375 -0.300781 75.335938 0 75.046875 0 C 72.421875 0 70.351562 -0.0507812 68.84375 -0.15625 L 59.796875 -0.296875 L 48.15625 -0.15625 C 46.445312 -0.0507812 44.132812 0 41.21875 0 C 40.914062 0 40.765625 -0.300781 40.765625 -0.90625 C 40.765625 -1.507812 40.914062 -1.8125 41.21875 -1.8125 C 44.84375 -1.8125 46.65625 -2.867188 46.65625 -4.984375 C 46.65625 -6.085938 46.253906 -7.09375 45.453125 -8 L 28.234375 -30.046875 L 25.359375 -27.484375 L 25.359375 -12.234375 C 25.359375 -8.203125 25.9375 -5.457031 27.09375 -4 C 28.257812 -2.539062 30.398438 -1.8125 33.515625 -1.8125 C 33.921875 -1.8125 34.125 -1.507812 34.125 -0.90625 C 34.125 -0.300781 33.921875 0 33.515625 0 C 30.898438 0 28.785156 -0.0507812 27.171875 -0.15625 L 18.421875 -0.296875 L 9.359375 -0.15625 C 7.847656 -0.0507812 5.785156 0 3.171875 0 C 2.972656 0 2.875 -0.300781 2.875 -0.90625 C 2.875 -1.507812 2.972656 -1.8125 3.171875 -1.8125 C 6.285156 -1.8125 8.421875 -2.539062 9.578125 -4 C 10.742188 -5.457031 11.328125 -8.203125 11.328125 -12.234375 L 11.328125 -88.9375 C 11.328125 -92.457031 11 -94.972656 10.34375 -96.484375 C 9.6875 -97.992188 8.550781 -98.75 6.9375 -98.75 C 5.53125 -98.75 3.617188 -98.191406 1.203125 -97.078125 L 1.0625 -97.078125 C 0.757812 -97.078125 0.476562 -97.351562 0.21875 -97.90625 C -0.03125 -98.46875 -0.0507812 -98.796875 0.15625 -98.890625 L 22.1875 -109.3125 L 22.953125 -109.46875 C 23.453125 -109.46875 23.976562 -109.238281 24.53125 -108.78125 C 25.082031 -108.332031 25.359375 -107.90625 25.359375 -107.5 L 25.359375 -30.953125 L 39.40625 -44.546875 C 42.019531 -46.953125 43.328125 -49.414062 43.328125 -51.9375 C 43.328125 -53.25 42.820312 -54.332031 41.8125 -55.1875 C 40.8125 -56.039062 39.40625 -56.46875 37.59375 -56.46875 C 37.394531 -56.46875 37.296875 -56.769531 37.296875 -57.375 C 37.296875 -57.976562 37.394531 -58.28125 37.59375 -58.28125 C 40.507812 -58.28125 42.773438 -58.226562 44.390625 -58.125 L 56.3125 -57.984375 L 67.34375 -58.125 C 68.75 -58.226562 70.710938 -58.28125 73.234375 -58.28125 C 73.535156 -58.28125 73.6875 -57.976562 73.6875 -57.375 C 73.6875 -56.769531 73.535156 -56.46875 73.234375 -56.46875 C 68.898438 -56.46875 63.9375 -55.382812 58.34375 -53.21875 C 52.757812 -51.050781 47.753906 -47.90625 43.328125 -43.78125 L 37.890625 -38.796875 L 58.578125 -12.234375 C 61.492188 -8.609375 64.285156 -5.960938 66.953125 -4.296875 C 69.628906 -2.640625 72.328125 -1.8125 75.046875 -1.8125 Z M 75.046875 -1.8125 "/></g></g></g><g fill="#f39c12" fill-opacity="1"><g transform="translate(357.96959, 369.082364)"><g><path d="M 58.578125 -9.96875 C 58.785156 -9.96875 59.015625 -9.765625 59.265625 -9.359375 C 59.515625 -8.953125 59.539062 -8.648438 59.34375 -8.453125 C 55.613281 -4.828125 51.835938 -2.207031 48.015625 -0.59375 C 44.191406 1.007812 40.015625 1.8125 35.484375 1.8125 C 29.140625 1.8125 23.648438 0.476562 19.015625 -2.1875 C 14.390625 -4.851562 10.867188 -8.425781 8.453125 -12.90625 C 6.035156 -17.382812 4.828125 -22.242188 4.828125 -27.484375 C 4.828125 -33.316406 6.285156 -38.695312 9.203125 -43.625 C 12.128906 -48.5625 16.179688 -52.460938 21.359375 -55.328125 C 26.546875 -58.203125 32.410156 -59.640625 38.953125 -59.640625 C 45.191406 -59.640625 50.019531 -58.226562 53.4375 -55.40625 C 56.863281 -52.59375 58.578125 -48.21875 58.578125 -42.28125 C 58.578125 -39.15625 58.023438 -37.59375 56.921875 -37.59375 L 20.234375 -37.4375 C 20.128906 -36.738281 20.078125 -35.582031 20.078125 -33.96875 C 20.078125 -25.113281 22.113281 -18.171875 26.1875 -13.140625 C 30.269531 -8.109375 36.132812 -5.59375 43.78125 -5.59375 C 46.5 -5.59375 48.8125 -5.890625 50.71875 -6.484375 C 52.632812 -7.085938 55.15625 -8.195312 58.28125 -9.8125 Z M 33.21875 -56.625 C 29.894531 -56.625 27.125 -55.1875 24.90625 -52.3125 C 22.695312 -49.445312 21.238281 -45.5 20.53125 -40.46875 L 42.421875 -40.765625 C 42.328125 -45.898438 41.570312 -49.828125 40.15625 -52.546875 C 38.75 -55.265625 36.4375 -56.625 33.21875 -56.625 Z M 33.21875 -56.625 "/></g></g></g><g fill="#f39c12" fill-opacity="1"><g transform="translate(421.082212, 369.082364)"><g><path d="M 45.140625 -59.796875 C 47.453125 -59.796875 49.691406 -58.960938 51.859375 -57.296875 C 54.023438 -55.640625 55.109375 -53.648438 55.109375 -51.328125 C 55.109375 -49.210938 54.453125 -47.476562 53.140625 -46.125 C 51.835938 -44.769531 50.128906 -44.09375 48.015625 -44.09375 C 46.503906 -44.09375 45.269531 -44.394531 44.3125 -45 C 43.351562 -45.601562 42.375 -46.507812 41.375 -47.71875 C 40.46875 -48.71875 39.6875 -49.441406 39.03125 -49.890625 C 38.375 -50.347656 37.59375 -50.578125 36.6875 -50.578125 C 35.675781 -50.578125 34.59375 -50.195312 33.4375 -49.4375 C 32.28125 -48.6875 30.492188 -47.101562 28.078125 -44.6875 L 28.078125 -12.234375 C 28.078125 -8.203125 29.035156 -5.457031 30.953125 -4 C 32.867188 -2.539062 36.390625 -1.8125 41.515625 -1.8125 C 41.921875 -1.8125 42.125 -1.507812 42.125 -0.90625 C 42.125 -0.300781 41.921875 0 41.515625 0 C 37.992188 0 35.226562 -0.0507812 33.21875 -0.15625 L 20.984375 -0.296875 L 12.078125 -0.15625 C 10.566406 -0.0507812 8.503906 0 5.890625 0 C 5.585938 0 5.4375 -0.300781 5.4375 -0.90625 C 5.4375 -1.507812 5.585938 -1.8125 5.890625 -1.8125 C 9.003906 -1.8125 11.113281 -2.539062 12.21875 -4 C 13.332031 -5.457031 13.890625 -8.203125 13.890625 -12.234375 L 13.890625 -40.609375 C 13.890625 -43.734375 13.507812 -46.023438 12.75 -47.484375 C 12 -48.941406 10.816406 -49.671875 9.203125 -49.671875 C 7.492188 -49.671875 5.082031 -48.96875 1.96875 -47.5625 L 1.65625 -47.5625 C 1.351562 -47.5625 1.125 -47.8125 0.96875 -48.3125 C 0.820312 -48.8125 0.851562 -49.113281 1.0625 -49.21875 L 22.046875 -59.484375 C 22.648438 -59.691406 23 -59.796875 23.09375 -59.796875 C 24.207031 -59.796875 25.238281 -58.757812 26.1875 -56.6875 C 27.144531 -54.625 27.726562 -51.832031 27.9375 -48.3125 C 32.0625 -52.539062 35.457031 -55.507812 38.125 -57.21875 C 40.789062 -58.9375 43.128906 -59.796875 45.140625 -59.796875 Z M 45.140625 -59.796875 "/></g></g></g><g fill="#f39c12" fill-opacity="1"><g transform="translate(478.306319, 369.082364)"><g><path d="M 66.578125 -58.28125 C 66.785156 -58.28125 66.890625 -57.976562 66.890625 -57.375 C 66.890625 -56.769531 66.785156 -56.46875 66.578125 -56.46875 C 63.359375 -56.46875 60.566406 -55.082031 58.203125 -52.3125 C 55.835938 -49.539062 53.695312 -45.539062 51.78125 -40.3125 L 35.03125 4.234375 C 29.695312 18.316406 24.585938 28.203125 19.703125 33.890625 C 14.816406 39.578125 9.40625 42.421875 3.46875 42.421875 C 0.445312 42.421875 -1.863281 41.789062 -3.46875 40.53125 C -5.082031 39.28125 -5.890625 37.445312 -5.890625 35.03125 C -5.890625 32.71875 -5.179688 30.957031 -3.765625 29.75 C -2.359375 28.539062 -0.648438 27.9375 1.359375 27.9375 C 2.460938 27.9375 3.390625 28.085938 4.140625 28.390625 C 4.898438 28.691406 5.832031 29.191406 6.9375 29.890625 C 8.851562 31.203125 10.664062 31.859375 12.375 31.859375 C 14.695312 31.859375 16.785156 30.976562 18.640625 29.21875 C 20.503906 27.457031 22.441406 24.535156 24.453125 20.453125 C 26.472656 16.378906 28.890625 10.566406 31.703125 3.015625 L 7.546875 -45.75 C 5.335938 -50.070312 3.601562 -52.9375 2.34375 -54.34375 C 1.082031 -55.757812 -0.453125 -56.46875 -2.265625 -56.46875 C -2.566406 -56.46875 -2.71875 -56.769531 -2.71875 -57.375 C -2.71875 -57.976562 -2.566406 -58.28125 -2.265625 -58.28125 C 0.554688 -58.28125 2.722656 -58.226562 4.234375 -58.125 L 10.5625 -57.984375 L 20.984375 -58.125 C 22.597656 -58.226562 24.765625 -58.28125 27.484375 -58.28125 C 27.785156 -58.28125 27.9375 -57.976562 27.9375 -57.375 C 27.9375 -56.769531 27.785156 -56.46875 27.484375 -56.46875 C 24.859375 -56.46875 22.941406 -56.238281 21.734375 -55.78125 C 20.535156 -55.332031 19.9375 -54.601562 19.9375 -53.59375 C 19.9375 -52.789062 20.234375 -51.785156 20.828125 -50.578125 L 38.65625 -14.1875 L 47.71875 -40.46875 C 48.613281 -43.082031 49.0625 -45.445312 49.0625 -47.5625 C 49.0625 -50.375 48.253906 -52.5625 46.640625 -54.125 C 45.035156 -55.6875 42.722656 -56.46875 39.703125 -56.46875 C 39.503906 -56.46875 39.40625 -56.769531 39.40625 -57.375 C 39.40625 -57.976562 39.503906 -58.28125 39.703125 -58.28125 C 42.421875 -58.28125 44.488281 -58.226562 45.90625 -58.125 L 54.953125 -57.984375 L 61 -58.125 C 62.207031 -58.226562 64.066406 -58.28125 66.578125 -58.28125 Z M 66.578125 -58.28125 "/></g></g></g><g fill="#f39c12" fill-opacity="1"><g transform="translate(542.778754, 369.082364)"><g/></g></g></svg>